# Blender v2.80 (sub 50) OBJ File: 'enclosement-Right.blend'
# www.blender.org
mtllib enclosement-Right.mtl
o Cube
v 3.500000 22.000000 -81.000000
v 3.500000 0.000000 -81.000000
v 3.500000 22.000000 1.000000
v 3.500000 0.000000 1.000000
v -3.500000 22.000000 -81.000000
v -3.500000 0.000000 -81.000000
v -3.500000 22.000000 1.000000
v -3.500000 0.000000 1.000000
v 3.500000 22.000000 -77.500000
v 3.500000 0.000000 -77.500000
v 3.500000 0.000000 -81.000000
v 3.500000 22.000000 -76.071602
v 3.500000 22.000000 -81.000000
v 3.500000 0.000000 -81.000000
v 3.500000 0.000000 -76.071602
v 43.500000 22.000000 -76.071602
v 43.500000 22.000000 -81.000000
v 43.500000 0.000000 -81.000000
v 43.500000 0.000000 -76.071602
v 50.500000 22.000000 -76.071602
v 50.500000 22.000000 -81.000000
v 50.500000 0.000000 -81.000000
v 50.500000 0.000000 -76.071602
v 43.500000 0.000000 -76.071602
v 43.500000 22.000000 -76.071602
v 50.500000 0.000000 -76.071602
v 50.500000 22.000000 -76.071602
v 43.500000 0.000000 44.866364
v 43.500000 22.000000 44.866364
v 50.500000 0.000000 44.866364
v 50.500000 22.000000 44.866364
v 43.500000 0.000000 48.366364
v 43.500000 22.000000 48.366364
v 50.500000 0.000000 48.366364
v 50.500000 22.000000 48.366364
v 3.500000 0.000000 44.866364
v 3.500000 22.000000 44.866364
v 3.500000 0.000000 48.366364
v 3.500000 22.000000 48.366364
v 3.500000 25.000000 1.000000
v -3.500000 25.000000 1.000000
v 3.500000 25.000000 -81.000000
v -3.500000 25.000000 -81.000000
v 3.500000 25.000000 -76.071602
v 3.500000 25.000000 -81.000000
v 43.500000 25.000000 -76.071602
v 43.500000 25.000000 -81.000000
v 50.500000 25.000000 -76.071602
v 50.500000 25.000000 -81.000000
v 50.500000 25.000000 -76.071602
v 43.500000 25.000000 -76.071602
v 50.500000 25.000000 44.866364
v 43.500000 25.000000 44.866364
v 50.500000 25.000000 48.366364
v 43.500000 25.000000 48.366364
v 3.500000 25.000000 44.866364
v 3.500000 25.000000 48.366364
v 43.500000 0.000000 44.866364
v 43.500000 22.000000 44.866364
v 3.500000 0.000000 44.866364
v 3.500000 22.000000 44.866364
v 43.500000 0.000000 44.006680
v 43.500000 22.000000 44.006680
v 3.500000 0.000000 44.006680
v 3.500000 22.000000 44.006680
v 43.500000 22.000000 44.866364
v 3.500000 22.000000 44.866364
v 43.500000 22.000000 44.006680
v 3.500000 22.000000 44.006680
v 43.500000 25.000000 44.866364
v 3.500000 25.000000 44.866364
v 43.500000 25.000000 44.006680
v 3.500000 25.000000 44.006680
vt 0.625000 0.750000
vt 0.625000 0.500000
vt 0.625000 0.500000
vt 0.625000 0.750000
vt 0.375000 0.250000
vt 0.625000 0.250000
vt 0.375000 0.500000
vt 0.375000 0.750000
vt 0.625000 0.750000
vt 0.625000 1.000000
vt 0.375000 1.000000
vt 0.125000 0.500000
vt 0.375000 0.500000
vt 0.375000 0.750000
vt 0.125000 0.750000
vt 0.625000 0.500000
vt 0.875000 0.500000
vt 0.875000 0.750000
vt 0.000000 0.000000
vt 0.000000 0.000000
vt 0.000000 0.000000
vt 0.000000 0.000000
vt 0.000000 0.000000
vt 0.000000 0.000000
vt 0.000000 0.000000
vt 0.000000 0.000000
vt 0.000000 0.000000
vt 0.000000 0.000000
vt 0.000000 0.000000
vt 0.000000 0.000000
vt 0.000000 0.000000
vt 0.000000 0.000000
vt 0.000000 0.000000
vt 0.000000 0.000000
vt 0.000000 0.000000
vt 0.000000 0.000000
vt 0.000000 0.000000
vt 0.000000 0.000000
vt 0.000000 0.000000
vt 0.000000 0.000000
vt 0.000000 0.000000
vt 0.000000 0.000000
vt 0.000000 0.000000
vt 0.000000 0.000000
vt 0.000000 0.000000
vt 0.000000 0.000000
vt 0.000000 0.000000
vt 0.000000 0.000000
vt 0.000000 0.000000
vt 0.000000 0.000000
vt 0.000000 0.000000
vt 0.000000 0.000000
vt 0.000000 0.000000
vt 0.000000 0.000000
vt 0.000000 0.000000
vt 0.000000 0.000000
vt 0.000000 0.000000
vt 0.000000 0.000000
vt 0.000000 0.000000
vt 0.000000 0.000000
vt 0.375000 0.000000
vt 0.625000 0.000000
vt 0.625000 0.250000
vt 0.375000 0.250000
vt 0.000000 0.000000
vt 0.000000 0.000000
vt 0.000000 0.000000
vt 0.000000 0.000000
vt 0.000000 0.000000
vt 0.000000 0.000000
vt 0.875000 0.500000
vt 0.875000 0.750000
vt 0.625000 0.250000
vt 0.375000 0.500000
vt 0.375000 0.750000
vt 0.000000 0.000000
vt 0.000000 0.000000
vt 0.000000 0.000000
vt 0.000000 0.000000
vt 0.000000 0.000000
vt 0.000000 0.000000
vt 0.000000 0.000000
vt 0.000000 0.000000
vt 0.000000 0.000000
vt 0.000000 0.000000
vt 0.000000 0.000000
vt 0.000000 0.000000
vt 0.000000 0.000000
vt 0.000000 0.000000
vn -1.0000 0.0000 0.0000
vn 0.0000 0.0000 1.0000
vn 0.0000 -1.0000 0.0000
vn 1.0000 0.0000 0.0000
vn 0.0000 0.0000 -1.0000
vn 0.0000 1.0000 0.0000
usemtl Material
s off
f 5/1/1 7/2/1 41/3/1 43/4/1
f 4/5/2 3/6/2 7/2/2 8/7/2
f 8/7/1 7/2/1 5/1/1 6/8/1
f 6/8/3 2/9/3 4/10/3 8/11/3
f 2/12/4 1/13/4 3/14/4 4/15/4
f 6/16/5 5/17/5 1/18/5 2/9/5
f 9/19/4 10/20/4 11/21/4 1/22/4
f 14/23/3 18/24/3 19/25/3 15/26/3
f 1/22/2 11/21/2 14/23/2 13/27/2
f 11/21/2 10/20/2 15/26/2 14/23/2
f 9/19/2 1/22/2 13/27/2 12/28/2
f 10/20/4 9/19/4 12/28/4 15/26/4
f 12/28/2 16/29/2 46/30/2 44/31/2
f 15/26/2 19/25/2 16/29/2 12/28/2
f 13/27/5 17/32/5 18/24/5 14/23/5
f 16/29/2 19/25/2 24/33/2 25/34/2
f 20/35/4 23/36/4 22/37/4 21/38/4
f 18/24/5 17/32/5 21/38/5 22/37/5
f 19/25/3 18/24/3 22/37/3 23/36/3
f 29/39/5 37/40/5 56/41/5 53/42/5
f 24/33/3 26/43/3 30/44/3 28/45/3
f 19/25/2 23/36/2 26/43/2 24/33/2
f 13/27/1 12/28/1 44/31/1 45/46/1
f 23/36/2 20/35/2 27/47/2 26/43/2
f 21/38/5 17/32/5 47/48/5 49/49/5
f 25/34/1 24/33/1 28/45/1 29/39/1
f 16/29/2 25/34/2 51/50/2 46/30/2
f 26/43/4 27/47/4 31/51/4 30/44/4
f 33/52/2 32/53/2 34/54/2 35/55/2
f 30/44/4 31/51/4 35/55/4 34/54/4
f 28/45/3 30/44/3 34/54/3 32/53/3
f 17/32/5 13/27/5 45/46/5 47/48/5
f 37/40/1 36/56/1 38/57/1 39/58/1
f 32/53/2 33/52/2 39/58/2 38/57/2
f 28/45/3 32/53/3 38/57/3 36/56/3
f 29/39/2 28/45/2 58/59/2 59/60/2
f 42/61/6 43/62/6 41/63/6 40/64/6
f 44/31/6 46/30/6 47/48/6 45/46/6
f 47/48/6 46/30/6 48/65/6 49/49/6
f 48/65/2 46/30/2 51/50/2 50/66/2
f 52/67/6 53/42/6 55/68/6 54/69/6
f 50/66/6 51/50/6 53/42/6 52/67/6
f 55/68/6 53/42/6 56/41/6 57/70/6
f 35/55/4 31/51/4 52/67/4 54/69/4
f 25/34/1 29/39/1 53/42/1 51/50/1
f 39/58/2 33/52/2 55/68/2 57/70/2
f 20/35/4 21/38/4 49/49/4 48/65/4
f 1/18/5 5/17/5 43/71/5 42/72/5
f 27/47/2 20/35/2 48/65/2 50/66/2
f 31/51/4 27/47/4 50/66/4 52/67/4
f 7/2/2 3/6/2 40/73/2 41/3/2
f 37/40/1 39/58/1 57/70/1 56/41/1
f 3/14/4 1/13/4 42/74/4 40/75/4
f 33/52/2 35/55/2 54/69/2 55/68/2
f 63/76/2 65/77/2 69/78/2 68/79/2
f 37/40/2 29/39/2 59/60/2 61/80/2
f 36/56/2 37/40/2 61/80/2 60/81/2
f 28/45/2 36/56/2 60/81/2 58/59/2
f 63/76/5 62/82/5 64/83/5 65/77/5
f 59/60/4 58/59/4 62/82/4 63/76/4
f 58/59/3 60/81/3 64/83/3 62/82/3
f 60/81/1 61/80/1 65/77/1 64/83/1
f 69/78/1 67/84/1 71/85/1 73/86/1
f 61/80/2 59/60/2 66/87/2 67/84/2
f 65/77/2 61/80/2 67/84/2 69/78/2
f 59/60/2 63/76/2 68/79/2 66/87/2
f 71/85/6 70/88/6 72/89/6 73/86/6
f 68/79/5 69/78/5 73/86/5 72/89/5
f 66/87/4 68/79/4 72/89/4 70/88/4
f 67/84/2 66/87/2 70/88/2 71/85/2
