# Blender v2.80 (sub 50) OBJ File: 'Entrance.blend'
# www.blender.org
mtllib Entrance.mtl
o Cube
v 1.000000 1.000000 2.307559
v 1.000000 -1.000000 2.307559
v 1.000000 1.000000 3.010756
v 1.000000 -1.000000 3.010756
v -1.000000 1.000000 2.307559
v -1.000000 -1.000000 2.307559
v -1.000000 1.000000 3.010756
v -1.000000 -1.000000 3.010756
v -1.000000 -1.000000 3.010756
v -1.000000 1.000000 3.010756
v 1.000000 1.000000 3.010756
v 1.000000 -1.000000 3.010756
v -1.000000 -1.000000 13.044669
v -1.000000 1.000000 13.044669
v 1.000000 1.000000 13.044669
v 1.000000 -1.000000 13.044669
v 1.000000 3.825101 3.010437
v -1.000000 3.825101 3.010437
v 1.000000 3.825101 2.083691
v -1.000000 3.825101 2.083691
v 1.000000 1.000000 3.010756
v -1.000000 1.000000 3.010756
v 1.000000 1.000000 13.044669
v -1.000000 1.000000 13.044669
v 1.000000 1.000000 3.010756
v -1.000000 1.000000 3.010756
v 1.000000 1.000000 13.044669
v -1.000000 1.000000 13.044669
v 1.000000 9.909809 3.010756
v -1.000000 9.909809 3.010756
v 1.000000 9.909809 13.044669
v -1.000000 9.909809 13.044669
v 1.000000 5.000757 3.010437
v -1.000000 5.000757 3.010437
v 1.000000 5.000757 1.854208
v -1.000000 5.000757 1.854208
v 1.000000 5.609879 3.010437
v -1.000000 5.609879 3.010437
v 1.000000 5.609879 1.519965
v -1.000000 5.609879 1.519965
v 1.000000 6.090022 3.010437
v -1.000000 6.090022 3.010437
v 1.000000 6.090022 1.179360
v -1.000000 6.090022 1.179360
v 1.000000 6.482671 3.010437
v -1.000000 6.482671 3.010437
v 1.000000 6.482671 0.002710
v -1.000000 6.482671 0.002710
v 1.000000 9.918108 3.010437
v -1.000000 9.918108 3.010437
v 1.000000 9.918108 0.002710
v -1.000000 9.918108 0.002710
v 1.000000 1.000000 -2.307559
v 1.000000 -1.000000 -2.307559
v 1.000000 1.000000 -3.010756
v 1.000000 -1.000000 -3.010756
v -1.000000 1.000000 -2.307559
v -1.000000 -1.000000 -2.307559
v -1.000000 1.000000 -3.010756
v -1.000000 -1.000000 -3.010756
v -1.000000 -1.000000 -3.010756
v -1.000000 1.000000 -3.010756
v 1.000000 1.000000 -3.010756
v 1.000000 -1.000000 -3.010756
v -1.000000 -1.000000 -13.044669
v -1.000000 1.000000 -13.044669
v 1.000000 1.000000 -13.044669
v 1.000000 -1.000000 -13.044669
v 1.000000 3.825101 -3.010437
v -1.000000 3.825101 -3.010437
v 1.000000 3.825101 -2.083691
v -1.000000 3.825101 -2.083691
v 1.000000 1.000000 -3.010756
v -1.000000 1.000000 -3.010756
v 1.000000 1.000000 -13.044669
v -1.000000 1.000000 -13.044669
v 1.000000 1.000000 -3.010756
v -1.000000 1.000000 -3.010756
v 1.000000 1.000000 -13.044669
v -1.000000 1.000000 -13.044669
v 1.000000 9.909809 -3.010756
v -1.000000 9.909809 -3.010756
v 1.000000 9.909809 -13.044669
v -1.000000 9.909809 -13.044669
v 1.000000 5.000757 -3.010437
v -1.000000 5.000757 -3.010437
v 1.000000 5.000757 -1.854208
v -1.000000 5.000757 -1.854208
v 1.000000 5.609879 -3.010437
v -1.000000 5.609879 -3.010437
v 1.000000 5.609879 -1.519965
v -1.000000 5.609879 -1.519965
v 1.000000 6.090022 -3.010437
v -1.000000 6.090022 -3.010437
v 1.000000 6.090022 -1.179360
v -1.000000 6.090022 -1.179360
v 1.000000 6.482671 -3.010437
v -1.000000 6.482671 -3.010437
v 1.000000 6.482671 -0.002710
v -1.000000 6.482671 -0.002710
v 1.000000 9.918108 -3.010437
v -1.000000 9.918108 -3.010437
v 1.000000 9.918108 -0.002710
v -1.000000 9.918108 -0.002710
vt 0.625000 0.750000
vt 0.625000 0.500000
vt 0.625000 0.500000
vt 0.625000 0.750000
vt 0.375000 0.500000
vt 0.375000 0.500000
vt 0.625000 0.500000
vt 0.375000 0.750000
vt 0.625000 0.750000
vt 0.625000 1.000000
vt 0.375000 1.000000
vt 0.125000 0.500000
vt 0.375000 0.500000
vt 0.375000 0.750000
vt 0.125000 0.750000
vt 0.625000 0.500000
vt 0.875000 0.500000
vt 0.875000 0.750000
vt 0.625000 0.500000
vt 0.625000 0.250000
vt 0.625000 0.250000
vt 0.625000 0.500000
vt 0.625000 1.000000
vt 0.375000 1.000000
vt 0.375000 0.250000
vt 0.625000 0.250000
vt 0.625000 0.250000
vt 0.375000 0.250000
vt 0.375000 0.750000
vt 0.125000 0.750000
vt 0.375000 0.250000
vt 0.375000 0.500000
vt 0.625000 1.000000
vt 0.375000 1.000000
vt 0.375000 0.750000
vt 0.125000 0.750000
vt 0.875000 0.750000
vt 0.875000 0.500000
vt 0.875000 0.500000
vt 0.875000 0.750000
vt 0.375000 0.500000
vt 0.375000 0.750000
vt 0.375000 0.250000
vt 0.625000 0.250000
vt 0.625000 0.500000
vt 0.625000 0.500000
vt 0.625000 0.500000
vt 0.625000 0.250000
vt 0.375000 0.250000
vt 0.375000 0.750000
vt 0.375000 0.750000
vt 0.375000 0.250000
vt 0.625000 0.250000
vt 0.625000 0.250000
vt 0.375000 0.250000
vt 0.375000 0.750000
vt 0.375000 0.750000
vt 0.625000 0.250000
vt 0.625000 0.250000
vt 0.375000 0.250000
vt 0.375000 0.750000
vt 0.375000 0.750000
vt 0.625000 0.250000
vt 0.625000 0.500000
vt 0.625000 0.500000
vt 0.625000 0.750000
vt 0.625000 0.500000
vt 0.625000 0.500000
vt 0.625000 0.750000
vt 0.375000 0.500000
vt 0.375000 0.750000
vt 0.375000 0.250000
vt 0.625000 0.250000
vt 0.875000 0.750000
vt 0.875000 0.500000
vt 0.875000 0.500000
vt 0.875000 0.750000
vt 0.375000 0.250000
vt 0.625000 0.250000
vt 0.375000 0.500000
vt 0.375000 0.750000
vt 0.375000 0.750000
vt 0.375000 0.500000
vt 0.375000 0.500000
vt 0.375000 0.750000
vt 0.625000 0.500000
vt 0.625000 0.750000
vt 0.375000 0.250000
vt 0.625000 0.250000
vt 0.625000 0.750000
vt 0.625000 0.500000
vt 0.625000 0.500000
vt 0.625000 0.750000
vt 0.375000 0.250000
vt 0.625000 0.250000
vt 0.875000 0.500000
vt 0.875000 0.750000
vt 0.375000 0.000000
vt 0.625000 0.000000
vt 0.625000 0.250000
vt 0.375000 0.250000
vt 0.875000 0.500000
vt 0.875000 0.750000
vt 0.375000 0.500000
vt 0.375000 0.750000
vt 0.625000 0.750000
vt 0.625000 0.750000
vt 0.625000 0.500000
vt 0.625000 0.500000
vt 0.625000 0.500000
vt 0.375000 0.500000
vt 0.375000 0.500000
vt 0.375000 0.750000
vt 0.375000 1.000000
vt 0.625000 1.000000
vt 0.625000 0.750000
vt 0.125000 0.500000
vt 0.125000 0.750000
vt 0.375000 0.750000
vt 0.375000 0.500000
vt 0.625000 0.500000
vt 0.875000 0.750000
vt 0.875000 0.500000
vt 0.625000 0.500000
vt 0.625000 0.500000
vt 0.625000 0.250000
vt 0.625000 0.250000
vt 0.375000 1.000000
vt 0.625000 1.000000
vt 0.375000 0.250000
vt 0.375000 0.250000
vt 0.625000 0.250000
vt 0.625000 0.250000
vt 0.125000 0.750000
vt 0.375000 0.750000
vt 0.375000 0.250000
vt 0.375000 0.500000
vt 0.375000 1.000000
vt 0.625000 1.000000
vt 0.125000 0.750000
vt 0.375000 0.750000
vt 0.875000 0.750000
vt 0.875000 0.750000
vt 0.875000 0.500000
vt 0.875000 0.500000
vt 0.375000 0.750000
vt 0.375000 0.500000
vt 0.625000 0.250000
vt 0.375000 0.250000
vt 0.625000 0.500000
vt 0.625000 0.500000
vt 0.625000 0.500000
vt 0.375000 0.250000
vt 0.625000 0.250000
vt 0.375000 0.750000
vt 0.375000 0.750000
vt 0.375000 0.250000
vt 0.375000 0.250000
vt 0.625000 0.250000
vt 0.625000 0.250000
vt 0.375000 0.750000
vt 0.375000 0.750000
vt 0.625000 0.250000
vt 0.375000 0.250000
vt 0.625000 0.250000
vt 0.375000 0.750000
vt 0.375000 0.750000
vt 0.625000 0.500000
vt 0.625000 0.250000
vt 0.625000 0.500000
vt 0.625000 0.750000
vt 0.625000 0.750000
vt 0.625000 0.500000
vt 0.625000 0.500000
vt 0.375000 0.750000
vt 0.375000 0.500000
vt 0.625000 0.250000
vt 0.375000 0.250000
vt 0.875000 0.750000
vt 0.875000 0.750000
vt 0.875000 0.500000
vt 0.875000 0.500000
vt 0.625000 0.250000
vt 0.375000 0.250000
vt 0.375000 0.750000
vt 0.375000 0.500000
vt 0.375000 0.750000
vt 0.375000 0.750000
vt 0.375000 0.500000
vt 0.375000 0.500000
vt 0.625000 0.750000
vt 0.625000 0.500000
vt 0.625000 0.250000
vt 0.375000 0.250000
vt 0.625000 0.750000
vt 0.625000 0.750000
vt 0.625000 0.500000
vt 0.625000 0.500000
vt 0.625000 0.250000
vt 0.375000 0.250000
vt 0.875000 0.750000
vt 0.875000 0.500000
vt 0.375000 0.000000
vt 0.375000 0.250000
vt 0.625000 0.250000
vt 0.625000 0.000000
vt 0.875000 0.750000
vt 0.875000 0.500000
vt 0.375000 0.750000
vt 0.375000 0.500000
vn -1.0000 0.0000 0.0000
vn 0.0000 0.0000 1.0000
vn 0.0000 -1.0000 0.0000
vn 1.0000 0.0000 0.0000
vn 0.0000 0.0000 -1.0000
vn 0.0000 -0.1916 -0.9815
vn 0.0000 -0.0790 -0.9969
vn 0.0000 0.0001 1.0000
vn 0.0000 1.0000 0.0000
vn 0.0000 -0.5786 -0.8156
vn 0.0000 -0.4811 -0.8767
vn 0.0000 -0.9486 -0.3165
vn 0.0000 -0.1916 0.9815
vn 0.0000 -0.0790 0.9969
vn 0.0000 0.0001 -1.0000
vn 0.0000 -0.5786 0.8156
vn 0.0000 -0.4811 0.8767
vn 0.0000 -0.9486 0.3165
usemtl Material
s off
f 5/1/1 7/2/1 18/3/1 20/4/1
f 7/2/2 8/5/2 9/6/2 10/7/2
f 8/5/1 7/2/1 5/1/1 6/8/1
f 6/8/3 2/9/3 4/10/3 8/11/3
f 2/12/4 1/13/4 3/14/4 4/15/4
f 6/16/5 5/17/5 1/18/5 2/9/5
f 14/19/2 15/20/2 23/21/2 24/22/2
f 8/11/2 4/10/2 12/23/2 9/24/2
f 3/25/2 7/26/2 10/27/2 11/28/2
f 4/15/2 3/14/2 11/29/2 12/30/2
f 16/31/2 15/20/2 14/19/2 13/32/2
f 10/7/1 9/6/1 13/32/1 14/19/1
f 9/24/3 12/23/3 16/33/3 13/34/3
f 12/30/4 11/29/4 15/35/4 16/36/4
f 19/37/6 20/38/6 36/39/6 35/40/6
f 3/14/4 1/13/4 19/41/4 17/42/4
f 1/18/7 5/17/7 20/38/7 19/37/7
f 7/26/8 3/25/8 17/43/8 18/44/8
f 22/45/2 24/22/2 28/46/2 26/47/2
f 11/28/2 10/27/2 22/48/2 21/49/2
f 15/35/2 11/29/2 21/50/2 23/51/2
f 10/7/2 14/19/2 24/22/2 22/45/2
f 25/52/5 26/53/5 30/54/5 29/55/5
f 21/49/2 22/48/2 26/53/2 25/52/2
f 23/51/2 21/50/2 25/56/2 27/57/2
f 24/22/2 23/21/2 27/58/2 28/46/2
f 29/55/9 30/54/9 32/59/9 31/60/9
f 27/57/4 25/56/4 29/61/4 31/62/4
f 28/46/2 27/58/2 31/63/2 32/64/2
f 26/47/1 28/46/1 32/64/1 30/65/1
f 36/66/1 34/67/1 38/68/1 40/69/1
f 17/42/4 19/41/4 35/70/4 33/71/4
f 20/4/1 18/3/1 34/67/1 36/66/1
f 18/44/2 17/43/2 33/72/2 34/73/2
f 39/74/10 40/75/10 44/76/10 43/77/10
f 34/73/2 33/72/2 37/78/2 38/79/2
f 35/40/11 36/39/11 40/75/11 39/74/11
f 33/71/4 35/70/4 39/80/4 37/81/4
f 41/82/4 43/83/4 47/84/4 45/85/4
f 37/81/4 39/80/4 43/83/4 41/82/4
f 40/69/1 38/68/1 42/86/1 44/87/1
f 38/79/2 37/78/2 41/88/2 42/89/2
f 48/90/1 46/91/1 50/92/1 52/93/1
f 44/87/1 42/86/1 46/91/1 48/90/1
f 42/89/2 41/88/2 45/94/2 46/95/2
f 43/77/12 44/76/12 48/96/12 47/97/12
f 51/98/9 52/99/9 50/100/9 49/101/9
f 46/95/2 45/94/2 49/101/2 50/100/2
f 47/97/5 48/96/5 52/102/5 51/103/5
f 45/85/4 47/84/4 51/104/4 49/105/4
f 57/106/1 72/107/1 70/108/1 59/109/1
f 59/109/2 62/110/2 61/111/2 60/112/2
f 60/112/1 58/113/1 57/106/1 59/109/1
f 58/113/3 60/114/3 56/115/3 54/116/3
f 54/117/4 56/118/4 55/119/4 53/120/4
f 58/121/2 54/116/2 53/122/2 57/123/2
f 66/124/2 76/125/2 75/126/2 67/127/2
f 60/114/2 61/128/2 64/129/2 56/115/2
f 55/130/2 63/131/2 62/132/2 59/133/2
f 56/118/2 64/134/2 63/135/2 55/119/2
f 68/136/5 65/137/5 66/124/5 67/127/5
f 62/110/1 66/124/1 65/137/1 61/111/1
f 61/128/3 65/138/3 68/139/3 64/129/3
f 64/134/4 68/140/4 67/141/4 63/135/4
f 71/142/13 87/143/13 88/144/13 72/145/13
f 55/119/4 69/146/4 71/147/4 53/120/4
f 53/122/14 71/142/14 72/145/14 57/123/14
f 59/133/15 70/148/15 69/149/15 55/130/15
f 74/150/2 78/151/2 80/152/2 76/125/2
f 63/131/2 73/153/2 74/154/2 62/132/2
f 67/141/2 75/155/2 73/156/2 63/135/2
f 62/110/2 74/150/2 76/125/2 66/124/2
f 77/157/2 81/158/2 82/159/2 78/160/2
f 73/153/2 77/157/2 78/160/2 74/154/2
f 75/155/2 79/161/2 77/162/2 73/156/2
f 76/125/2 80/152/2 79/163/2 75/126/2
f 81/158/9 83/164/9 84/165/9 82/159/9
f 79/161/4 83/166/4 81/167/4 77/162/4
f 80/152/5 84/168/5 83/169/5 79/163/5
f 78/151/1 82/170/1 84/168/1 80/152/1
f 88/171/1 92/172/1 90/173/1 86/174/1
f 69/146/4 85/175/4 87/176/4 71/147/4
f 72/107/1 88/171/1 86/174/1 70/108/1
f 70/148/5 86/177/5 85/178/5 69/149/5
f 91/179/16 95/180/16 96/181/16 92/182/16
f 86/177/5 90/183/5 89/184/5 85/178/5
f 87/143/17 91/179/17 92/182/17 88/144/17
f 85/175/4 89/185/4 91/186/4 87/176/4
f 93/187/4 97/188/4 99/189/4 95/190/4
f 89/185/4 93/187/4 95/190/4 91/186/4
f 92/172/1 96/191/1 94/192/1 90/173/1
f 90/183/5 94/193/5 93/194/5 89/184/5
f 100/195/1 104/196/1 102/197/1 98/198/1
f 96/191/1 100/195/1 98/198/1 94/192/1
f 94/193/5 98/199/5 97/200/5 93/194/5
f 95/180/18 99/201/18 100/202/18 96/181/18
f 103/203/9 101/204/9 102/205/9 104/206/9
f 98/199/5 102/205/5 101/204/5 97/200/5
f 99/201/2 103/207/2 104/208/2 100/202/2
f 97/188/4 101/209/4 103/210/4 99/189/4
