# Blender v2.80 (sub 50) OBJ File: 'Moving-Platform.blend'
# www.blender.org
mtllib Moving-Platform.mtl
o Cube_Cube.002
v -1.000000 -0.200000 2.000000
v -1.000000 0.200000 2.000000
v -1.000000 -0.200000 -2.000000
v -1.000000 0.200000 -2.000000
v 1.000000 -0.200000 2.000000
v 1.000000 0.200000 2.000000
v 1.000000 -0.200000 -2.000000
v 1.000000 0.200000 -2.000000
v -1.000000 -0.200000 -2.000000
v -1.000000 -0.200000 2.000000
v 1.000000 -0.200000 -2.000000
v 1.000000 -0.200000 2.000000
v -0.694284 -0.400000 -1.388568
v -0.694284 -0.400000 1.388568
v 0.694284 -0.400000 -1.388568
v 0.694284 -0.400000 1.388568
v -1.000000 -0.337789 -2.000000
v -0.688944 -0.400000 -1.377887
v -0.688944 -0.400000 1.377887
v -1.000000 -0.337789 2.000000
v 1.000000 -0.337789 -2.000000
v 0.688944 -0.400000 -1.377887
v 1.000000 -0.337789 2.000000
v 0.688944 -0.400000 1.377887
v -0.197949 -0.400000 0.890719
v -0.101827 -0.400000 0.938780
v 0.090418 -0.400000 0.922759
v 0.250622 -0.400000 0.815957
v 0.325384 -0.400000 0.714494
v 0.352085 -0.400000 0.559631
v 0.330724 -0.400000 0.420787
v 0.229262 -0.400000 0.292624
v 0.063717 -0.400000 0.207818
v -0.123187 -0.400000 0.223270
v -0.262030 -0.400000 0.287284
v -0.336792 -0.400000 0.395815
v -0.395534 -0.400000 0.532930
v -0.398352 -0.400000 0.639732
v -0.310792 -0.400000 0.784684
v -0.208629 -0.400000 0.880038
v -0.187080 -0.700000 0.831956
v -0.098633 -0.700000 0.876179
v 0.084735 -0.700000 0.860899
v 0.236695 -0.700000 0.759592
v 0.299323 -0.700000 0.674597
v 0.319335 -0.700000 0.558531
v 0.304350 -0.700000 0.461135
v 0.216781 -0.700000 0.350522
v 0.060427 -0.700000 0.270424
v -0.119011 -0.700000 0.285258
v -0.248864 -0.700000 0.345127
v -0.315532 -0.700000 0.441908
v -0.364995 -0.700000 0.557366
v -0.366430 -0.700000 0.611731
v -0.294009 -0.700000 0.731621
v -0.195079 -0.700000 0.823957
v -0.197949 -0.700000 0.890719
v -0.101827 -0.700000 0.938780
v 0.090418 -0.700000 0.922759
v 0.250622 -0.700000 0.815957
v 0.325384 -0.700000 0.714494
v 0.352085 -0.700000 0.559631
v 0.330724 -0.700000 0.420787
v 0.229262 -0.700000 0.292624
v 0.063717 -0.700000 0.207818
v -0.123187 -0.700000 0.223270
v -0.262031 -0.700000 0.287284
v -0.336792 -0.700000 0.395815
v -0.395534 -0.700000 0.532930
v -0.398352 -0.700000 0.639732
v -0.310792 -0.700000 0.784684
v -0.208629 -0.700000 0.880038
v -0.187080 -0.404160 0.831956
v -0.098633 -0.404160 0.876179
v 0.084736 -0.404160 0.860899
v 0.236695 -0.404160 0.759592
v 0.299323 -0.404160 0.674597
v 0.319335 -0.404160 0.558531
v 0.304350 -0.404160 0.461135
v 0.216782 -0.404160 0.350521
v 0.060427 -0.404160 0.270424
v -0.119011 -0.404160 0.285258
v -0.248864 -0.404160 0.345127
v -0.315532 -0.404160 0.441908
v -0.364995 -0.404160 0.557366
v -0.366430 -0.404160 0.611731
v -0.294009 -0.404160 0.731621
v -0.195079 -0.404160 0.823957
v -1.000000 -0.200000 -2.000000
v -1.000000 0.200000 -2.000000
v -1.000000 -0.200000 2.000000
v -1.000000 0.200000 2.000000
v 1.000000 -0.200000 -2.000000
v 1.000000 0.200000 -2.000000
v 1.000000 -0.200000 2.000000
v 1.000000 0.200000 2.000000
v -1.000000 -0.200000 2.000000
v -1.000000 -0.200000 -2.000000
v 1.000000 -0.200000 2.000000
v 1.000000 -0.200000 -2.000000
v -0.694284 -0.400000 1.388568
v -0.694284 -0.400000 -1.388568
v 0.694284 -0.400000 1.388568
v 0.694284 -0.400000 -1.388568
v -1.000000 -0.337789 2.000000
v -0.688944 -0.400000 1.377887
v -0.688944 -0.400000 -1.377887
v -1.000000 -0.337789 -2.000000
v 1.000000 -0.337789 2.000000
v 0.688944 -0.400000 1.377887
v 1.000000 -0.337789 -2.000000
v 0.688944 -0.400000 -1.377887
v -0.197949 -0.400000 -0.890719
v -0.101827 -0.400000 -0.938780
v 0.090418 -0.400000 -0.922759
v 0.250622 -0.400000 -0.815957
v 0.325384 -0.400000 -0.714494
v 0.352085 -0.400000 -0.559631
v 0.330724 -0.400000 -0.420787
v 0.229262 -0.400000 -0.292624
v 0.063717 -0.400000 -0.207818
v -0.123187 -0.400000 -0.223270
v -0.262030 -0.400000 -0.287284
v -0.336792 -0.400000 -0.395815
v -0.395534 -0.400000 -0.532930
v -0.398352 -0.400000 -0.639732
v -0.310792 -0.400000 -0.784684
v -0.208629 -0.400000 -0.880038
v -0.187080 -0.700000 -0.831956
v -0.098633 -0.700000 -0.876179
v 0.084735 -0.700000 -0.860899
v 0.236695 -0.700000 -0.759592
v 0.299323 -0.700000 -0.674597
v 0.319335 -0.700000 -0.558531
v 0.304350 -0.700000 -0.461135
v 0.216781 -0.700000 -0.350522
v 0.060427 -0.700000 -0.270424
v -0.119011 -0.700000 -0.285258
v -0.248864 -0.700000 -0.345127
v -0.315532 -0.700000 -0.441908
v -0.364995 -0.700000 -0.557366
v -0.366430 -0.700000 -0.611731
v -0.294009 -0.700000 -0.731621
v -0.195079 -0.700000 -0.823957
v -0.197949 -0.700000 -0.890719
v -0.101827 -0.700000 -0.938780
v 0.090418 -0.700000 -0.922759
v 0.250622 -0.700000 -0.815957
v 0.325384 -0.700000 -0.714494
v 0.352085 -0.700000 -0.559631
v 0.330724 -0.700000 -0.420787
v 0.229262 -0.700000 -0.292624
v 0.063717 -0.700000 -0.207818
v -0.123187 -0.700000 -0.223270
v -0.262031 -0.700000 -0.287284
v -0.336792 -0.700000 -0.395815
v -0.395534 -0.700000 -0.532930
v -0.398352 -0.700000 -0.639732
v -0.310792 -0.700000 -0.784684
v -0.208629 -0.700000 -0.880038
v -0.187080 -0.404160 -0.831956
v -0.098633 -0.404160 -0.876179
v 0.084736 -0.404160 -0.860899
v 0.236695 -0.404160 -0.759592
v 0.299323 -0.404160 -0.674597
v 0.319335 -0.404160 -0.558531
v 0.304350 -0.404160 -0.461135
v 0.216782 -0.404160 -0.350521
v 0.060427 -0.404160 -0.270424
v -0.119011 -0.404160 -0.285258
v -0.248864 -0.404160 -0.345127
v -0.315532 -0.404160 -0.441908
v -0.364995 -0.404160 -0.557366
v -0.366430 -0.404160 -0.611731
v -0.294009 -0.404160 -0.731621
v -0.195079 -0.404160 -0.823957
vt 0.375000 0.000000
vt 0.625000 0.000000
vt 0.625000 0.250000
vt 0.375000 0.250000
vt 0.625000 0.500000
vt 0.375000 0.500000
vt 0.625000 0.750000
vt 0.375000 0.750000
vt 0.625000 1.000000
vt 0.375000 1.000000
vt 0.375000 0.500000
vt 0.375000 0.250000
vt 0.875000 0.500000
vt 0.875000 0.750000
vt 0.336785 0.711785
vt 0.336785 0.538215
vt 0.336118 0.538882
vt 0.336118 0.711118
vt 0.375000 0.000000
vt 0.375000 0.750000
vt 0.375000 1.000000
vt 0.163215 0.538215
vt 0.163215 0.711786
vt 0.163882 0.711118
vt 0.163882 0.538882
vt 0.375000 0.250000
vt 0.375000 0.000000
vt 0.375000 0.500000
vt 0.375000 0.750000
vt 0.375000 1.000000
vt 0.125000 0.750000
vt 0.125000 0.500000
vt 0.000000 0.000000
vt 0.000000 0.000000
vt 0.000000 0.000000
vt 0.000000 0.000000
vt 0.000000 0.000000
vt 0.000000 0.000000
vt 0.000000 0.000000
vt 0.000000 0.000000
vt 0.000000 0.000000
vt 0.000000 0.000000
vt 0.000000 0.000000
vt 0.000000 0.000000
vt 0.000000 0.000000
vt 0.000000 0.000000
vt 0.000000 0.000000
vt 0.000000 0.000000
vt 0.000000 0.000000
vt 0.000000 0.000000
vt 0.000000 0.000000
vt 0.000000 0.000000
vt 0.000000 0.000000
vt 0.000000 0.000000
vt 0.000000 0.000000
vt 0.000000 0.000000
vt 0.000000 0.000000
vt 0.000000 0.000000
vt 0.000000 0.000000
vt 0.000000 0.000000
vt 0.000000 0.000000
vt 0.000000 0.000000
vt 0.000000 0.000000
vt 0.000000 0.000000
vt 0.000000 0.000000
vt 0.000000 0.000000
vt 0.000000 0.000000
vt 0.000000 0.000000
vt 0.000000 0.000000
vt 0.000000 0.000000
vt 0.000000 0.000000
vt 0.000000 0.000000
vt 0.000000 0.000000
vt 0.000000 0.000000
vt 0.000000 0.000000
vt 0.000000 0.000000
vt 0.000000 0.000000
vt 0.000000 0.000000
vt 0.000000 0.000000
vt 0.000000 0.000000
vt 0.000000 0.000000
vt 0.000000 0.000000
vt 0.000000 0.000000
vt 0.000000 0.000000
vt 0.000000 0.000000
vt 0.000000 0.000000
vt 0.000000 0.000000
vt 0.000000 0.000000
vt 0.000000 0.000000
vt 0.000000 0.000000
vt 0.000000 0.000000
vt 0.000000 0.000000
vt 0.000000 0.000000
vt 0.000000 0.000000
vt 0.000000 0.000000
vt 0.000000 0.000000
vt 0.375000 0.000000
vt 0.375000 0.250000
vt 0.625000 0.250000
vt 0.625000 0.000000
vt 0.375000 0.500000
vt 0.625000 0.500000
vt 0.375000 0.750000
vt 0.625000 0.750000
vt 0.375000 1.000000
vt 0.625000 1.000000
vt 0.375000 0.250000
vt 0.375000 0.500000
vt 0.875000 0.750000
vt 0.875000 0.500000
vt 0.336785 0.711785
vt 0.336118 0.711118
vt 0.336118 0.538882
vt 0.336785 0.538215
vt 0.375000 0.000000
vt 0.375000 0.750000
vt 0.375000 1.000000
vt 0.163215 0.538215
vt 0.163215 0.711786
vt 0.163882 0.711118
vt 0.163882 0.538882
vt 0.375000 0.000000
vt 0.375000 0.250000
vt 0.375000 0.500000
vt 0.375000 0.750000
vt 0.375000 1.000000
vt 0.125000 0.500000
vt 0.125000 0.750000
vt 0.000000 0.000000
vt 0.000000 0.000000
vt 0.000000 0.000000
vt 0.000000 0.000000
vt 0.000000 0.000000
vt 0.000000 0.000000
vt 0.000000 0.000000
vt 0.000000 0.000000
vt 0.000000 0.000000
vt 0.000000 0.000000
vt 0.000000 0.000000
vt 0.000000 0.000000
vt 0.000000 0.000000
vt 0.000000 0.000000
vt 0.000000 0.000000
vt 0.000000 0.000000
vt 0.000000 0.000000
vt 0.000000 0.000000
vt 0.000000 0.000000
vt 0.000000 0.000000
vt 0.000000 0.000000
vt 0.000000 0.000000
vt 0.000000 0.000000
vt 0.000000 0.000000
vt 0.000000 0.000000
vt 0.000000 0.000000
vt 0.000000 0.000000
vt 0.000000 0.000000
vt 0.000000 0.000000
vt 0.000000 0.000000
vt 0.000000 0.000000
vt 0.000000 0.000000
vt 0.000000 0.000000
vt 0.000000 0.000000
vt 0.000000 0.000000
vt 0.000000 0.000000
vt 0.000000 0.000000
vt 0.000000 0.000000
vt 0.000000 0.000000
vt 0.000000 0.000000
vt 0.000000 0.000000
vt 0.000000 0.000000
vt 0.000000 0.000000
vt 0.000000 0.000000
vt 0.000000 0.000000
vt 0.000000 0.000000
vt 0.000000 0.000000
vt 0.000000 0.000000
vt 0.000000 0.000000
vt 0.000000 0.000000
vt 0.000000 0.000000
vt 0.000000 0.000000
vt 0.000000 0.000000
vt 0.000000 0.000000
vt 0.000000 0.000000
vt 0.000000 0.000000
vt 0.000000 0.000000
vt 0.000000 0.000000
vt 0.000000 0.000000
vt 0.000000 0.000000
vt 0.000000 0.000000
vt 0.000000 0.000000
vt 0.000000 0.000000
vt 0.000000 0.000000
vn -1.0000 0.0000 0.0000
vn 0.0000 0.0000 -1.0000
vn 1.0000 0.0000 0.0000
vn 0.0000 0.0000 1.0000
vn 0.0000 1.0000 0.0000
vn 0.0000 -1.0000 0.0000
vn -0.1961 -0.9806 0.0000
vn 0.0000 -0.9950 -0.0995
vn 0.1961 -0.9806 0.0000
vn 0.0000 -0.9950 0.0995
vn -0.6823 0.0000 0.7310
vn -0.8051 0.0000 -0.5932
vn 0.9192 -0.0000 0.3938
vn -0.9855 0.0000 -0.1699
vn 0.9997 -0.0000 0.0264
vn -0.9884 0.0000 0.1521
vn 0.8560 -0.0000 -0.5171
vn -0.7840 0.0000 0.6207
vn 0.6823 -0.0000 -0.7310
vn -0.4559 0.0000 0.8900
vn 0.4472 -0.0000 -0.8944
vn 0.7071 -0.0000 -0.7071
vn 0.0824 0.0000 0.9966
vn -0.0830 0.0000 -0.9965
vn 0.4187 0.0000 0.9081
vn -0.5547 0.0000 -0.8321
vn 0.8235 0.0000 0.5673
vn 0.4559 -0.0000 -0.8900
vn -0.4472 0.0000 0.8944
vn -0.7071 0.0000 0.7071
vn -0.0824 -0.0000 -0.9966
vn 0.0830 -0.0000 0.9965
vn -0.4187 -0.0000 -0.9081
vn 0.5547 -0.0000 0.8321
vn -0.8235 0.0000 -0.5673
vn 0.8051 -0.0000 0.5932
vn -0.9192 0.0000 -0.3938
vn 0.9855 -0.0000 0.1699
vn -0.9997 0.0000 -0.0264
vn 0.9884 -0.0000 -0.1521
vn -0.8560 0.0000 0.5171
vn 0.7840 -0.0000 -0.6207
vn -0.6823 0.0000 -0.7310
vn -0.8051 0.0000 0.5932
vn 0.9192 -0.0000 -0.3938
vn -0.9855 0.0000 0.1699
vn 0.9997 -0.0000 -0.0264
vn -0.9884 0.0000 -0.1521
vn 0.8560 -0.0000 0.5171
vn -0.7840 0.0000 -0.6207
vn 0.6823 -0.0000 0.7310
vn -0.4559 0.0000 -0.8900
vn 0.4472 -0.0000 0.8944
vn 0.7071 -0.0000 0.7071
vn 0.0824 0.0000 -0.9966
vn -0.0830 0.0000 0.9965
vn 0.4187 0.0000 -0.9081
vn -0.5547 0.0000 0.8321
vn 0.8235 -0.0000 -0.5673
vn 0.4559 -0.0000 0.8900
vn -0.4472 0.0000 -0.8944
vn -0.7071 0.0000 -0.7071
vn -0.0824 -0.0000 0.9966
vn 0.0830 -0.0000 -0.9965
vn -0.4187 -0.0000 0.9081
vn 0.5547 -0.0000 -0.8321
vn -0.8235 0.0000 0.5673
vn 0.8051 -0.0000 -0.5932
vn -0.9192 0.0000 0.3938
vn 0.9855 -0.0000 -0.1699
vn -0.9997 0.0000 0.0264
vn 0.9884 -0.0000 0.1521
vn -0.8560 0.0000 -0.5171
vn 0.7840 -0.0000 0.6207
usemtl None
s off
f 1/1/1 2/2/1 4/3/1 3/4/1
f 3/4/2 4/3/2 8/5/2 7/6/2
f 7/6/3 8/5/3 6/7/3 5/8/3
f 5/8/4 6/7/4 2/9/4 1/10/4
f 3/4/4 7/6/4 11/11/4 9/12/4
f 8/5/5 4/13/5 2/14/5 6/7/5
f 16/15/5 15/16/5 22/17/5 24/18/5
f 1/1/4 3/4/4 9/12/4 10/19/4
f 7/6/4 5/8/4 12/20/4 11/11/4
f 5/8/4 1/10/4 10/21/4 12/20/4
f 13/22/6 15/16/6 16/15/6 14/23/6
f 14/23/5 16/15/5 24/18/5 19/24/5
f 15/16/5 13/22/5 18/25/5 22/17/5
f 10/19/1 9/12/1 17/26/1 20/27/1
f 9/12/2 11/11/2 21/28/2 17/26/2
f 11/11/3 12/20/3 23/29/3 21/28/3
f 12/20/4 10/21/4 20/30/4 23/29/4
f 18/25/7 19/24/7 20/31/7 17/32/7
f 22/17/8 18/25/8 17/32/8 21/28/8
f 24/18/9 22/17/9 21/28/9 23/29/9
f 19/24/10 24/18/10 23/29/10 20/31/10
f 13/22/5 14/23/5 19/24/5 18/25/5
f 26/33/6 25/34/6 40/35/6 39/36/6 38/37/6 37/38/6 36/39/6 35/40/6 34/41/6 33/42/6 32/43/6 31/44/6 30/45/6 29/46/6 28/47/6 27/48/6
f 55/49/11 56/50/11 88/51/11 87/52/11
f 28/47/12 29/46/12 61/53/12 60/54/12
f 36/39/13 37/38/13 69/55/13 68/56/13
f 29/46/14 30/45/14 62/57/14 61/53/14
f 37/38/15 38/37/15 70/58/15 69/55/15
f 30/45/16 31/44/16 63/59/16 62/57/16
f 38/37/17 39/36/17 71/60/17 70/58/17
f 31/44/18 32/43/18 64/61/18 63/59/18
f 39/36/19 40/35/19 72/62/19 71/60/19
f 32/43/20 33/42/20 65/63/20 64/61/20
f 25/34/21 26/33/21 58/64/21 57/65/21
f 40/35/22 25/34/22 57/65/22 72/62/22
f 33/42/23 34/41/23 66/66/23 65/63/23
f 26/33/24 27/48/24 59/67/24 58/64/24
f 34/41/25 35/40/25 67/68/25 66/66/25
f 27/48/26 28/47/26 60/54/26 59/67/26
f 35/40/27 36/39/27 68/56/27 67/68/27
f 42/69/5 41/70/5 57/65/5 58/64/5
f 43/71/5 42/69/5 58/64/5 59/67/5
f 44/72/5 43/71/5 59/67/5 60/54/5
f 45/73/5 44/72/5 60/54/5 61/53/5
f 46/74/5 45/73/5 61/53/5 62/57/5
f 47/75/5 46/74/5 62/57/5 63/59/5
f 48/76/5 47/75/5 63/59/5 64/61/5
f 49/77/5 48/76/5 64/61/5 65/63/5
f 50/78/5 49/77/5 65/63/5 66/66/5
f 51/79/5 50/78/5 66/66/5 67/68/5
f 52/80/5 51/79/5 67/68/5 68/56/5
f 53/81/5 52/80/5 68/56/5 69/55/5
f 54/82/5 53/81/5 69/55/5 70/58/5
f 55/49/5 54/82/5 70/58/5 71/60/5
f 56/50/5 55/49/5 71/60/5 72/62/5
f 41/70/5 56/50/5 72/62/5 57/65/5
f 74/83/5 75/84/5 76/85/5 77/86/5 78/87/5 79/88/5 80/89/5 81/90/5 82/91/5 83/92/5 84/93/5 85/94/5 86/95/5 87/52/5 88/51/5 73/96/5
f 48/76/28 49/77/28 81/90/28 80/89/28
f 41/70/29 42/69/29 74/83/29 73/96/29
f 56/50/30 41/70/30 73/96/30 88/51/30
f 49/77/31 50/78/31 82/91/31 81/90/31
f 42/69/32 43/71/32 75/84/32 74/83/32
f 50/78/33 51/79/33 83/92/33 82/91/33
f 43/71/34 44/72/34 76/85/34 75/84/34
f 51/79/35 52/80/35 84/93/35 83/92/35
f 44/72/36 45/73/36 77/86/36 76/85/36
f 52/80/37 53/81/37 85/94/37 84/93/37
f 45/73/38 46/74/38 78/87/38 77/86/38
f 53/81/39 54/82/39 86/95/39 85/94/39
f 46/74/40 47/75/40 79/88/40 78/87/40
f 54/82/41 55/49/41 87/52/41 86/95/41
f 47/75/42 48/76/42 80/89/42 79/88/42
f 89/97/1 91/98/1 92/99/1 90/100/1
f 91/98/4 95/101/4 96/102/4 92/99/4
f 95/101/3 93/103/3 94/104/3 96/102/3
f 93/103/2 89/105/2 90/106/2 94/104/2
f 91/98/4 97/107/4 99/108/4 95/101/4
f 96/102/5 94/104/5 90/109/5 92/110/5
f 104/111/5 112/112/5 110/113/5 103/114/5
f 89/97/4 98/115/4 97/107/4 91/98/4
f 95/101/4 99/108/4 100/116/4 93/103/4
f 93/103/4 100/116/4 98/117/4 89/105/4
f 101/118/6 102/119/6 104/111/6 103/114/6
f 102/119/5 107/120/5 112/112/5 104/111/5
f 103/114/5 110/113/5 106/121/5 101/118/5
f 98/115/1 108/122/1 105/123/1 97/107/1
f 97/107/4 105/123/4 109/124/4 99/108/4
f 99/108/3 109/124/3 111/125/3 100/116/3
f 100/116/2 111/125/2 108/126/2 98/117/2
f 106/121/7 105/127/7 108/128/7 107/120/7
f 110/113/10 109/124/10 105/127/10 106/121/10
f 112/112/9 111/125/9 109/124/9 110/113/9
f 107/120/8 108/128/8 111/125/8 112/112/8
f 101/118/5 106/121/5 107/120/5 102/119/5
f 114/129/6 115/130/6 116/131/6 117/132/6 118/133/6 119/134/6 120/135/6 121/136/6 122/137/6 123/138/6 124/139/6 125/140/6 126/141/6 127/142/6 128/143/6 113/144/6
f 143/145/43 175/146/43 176/147/43 144/148/43
f 116/131/44 148/149/44 149/150/44 117/132/44
f 124/139/45 156/151/45 157/152/45 125/140/45
f 117/132/46 149/150/46 150/153/46 118/133/46
f 125/140/47 157/152/47 158/154/47 126/141/47
f 118/133/48 150/153/48 151/155/48 119/134/48
f 126/141/49 158/154/49 159/156/49 127/142/49
f 119/134/50 151/155/50 152/157/50 120/135/50
f 127/142/51 159/156/51 160/158/51 128/143/51
f 120/135/52 152/157/52 153/159/52 121/136/52
f 113/144/53 145/160/53 146/161/53 114/129/53
f 128/143/54 160/158/54 145/160/54 113/144/54
f 121/136/55 153/159/55 154/162/55 122/137/55
f 114/129/56 146/161/56 147/163/56 115/130/56
f 122/137/57 154/162/57 155/164/57 123/138/57
f 115/130/58 147/163/58 148/149/58 116/131/58
f 123/138/59 155/164/59 156/151/59 124/139/59
f 130/165/5 146/161/5 145/160/5 129/166/5
f 131/167/5 147/163/5 146/161/5 130/165/5
f 132/168/5 148/149/5 147/163/5 131/167/5
f 133/169/5 149/150/5 148/149/5 132/168/5
f 134/170/5 150/153/5 149/150/5 133/169/5
f 135/171/5 151/155/5 150/153/5 134/170/5
f 136/172/5 152/157/5 151/155/5 135/171/5
f 137/173/5 153/159/5 152/157/5 136/172/5
f 138/174/5 154/162/5 153/159/5 137/173/5
f 139/175/5 155/164/5 154/162/5 138/174/5
f 140/176/5 156/151/5 155/164/5 139/175/5
f 141/177/5 157/152/5 156/151/5 140/176/5
f 142/178/5 158/154/5 157/152/5 141/177/5
f 143/145/5 159/156/5 158/154/5 142/178/5
f 144/148/5 160/158/5 159/156/5 143/145/5
f 129/166/5 145/160/5 160/158/5 144/148/5
f 162/179/5 161/180/5 176/147/5 175/146/5 174/181/5 173/182/5 172/183/5 171/184/5 170/185/5 169/186/5 168/187/5 167/188/5 166/189/5 165/190/5 164/191/5 163/192/5
f 136/172/60 168/187/60 169/186/60 137/173/60
f 129/166/61 161/180/61 162/179/61 130/165/61
f 144/148/62 176/147/62 161/180/62 129/166/62
f 137/173/63 169/186/63 170/185/63 138/174/63
f 130/165/64 162/179/64 163/192/64 131/167/64
f 138/174/65 170/185/65 171/184/65 139/175/65
f 131/167/66 163/192/66 164/191/66 132/168/66
f 139/175/67 171/184/67 172/183/67 140/176/67
f 132/168/68 164/191/68 165/190/68 133/169/68
f 140/176/69 172/183/69 173/182/69 141/177/69
f 133/169/70 165/190/70 166/189/70 134/170/70
f 141/177/71 173/182/71 174/181/71 142/178/71
f 134/170/72 166/189/72 167/188/72 135/171/72
f 142/178/73 174/181/73 175/146/73 143/145/73
f 135/171/74 167/188/74 168/187/74 136/172/74
