# Blender v2.80 (sub 50) OBJ File: 'ramp.blend'
# www.blender.org
mtllib ramp.mtl
o Cube
v -1.000000 0.500000 -1.000000
v -1.000000 -0.500000 -1.000000
v -1.000000 0.500000 1.000000
v -1.000000 -0.500000 1.000000
v -9.000000 0.500000 -1.000000
v -9.000000 -0.500000 -1.000000
v -9.000000 0.500000 1.000000
v -9.000000 -0.500000 1.000000
v -9.000000 0.472648 -1.000000
v -9.000000 0.500000 -1.000000
v -17.936134 3.792689 1.880203
v -17.936134 -0.500000 1.880203
v -19.244171 -0.500000 0.367247
v -18.281033 3.792689 6.324175
v -18.281033 -0.500000 6.324175
v -13.871527 6.815464 6.750000
v -9.871527 6.815464 6.750000
v -15.871527 2.265463 1.250000
v -20.371527 4.265463 2.250000
v -17.059597 3.792689 6.816926
v -9.950882 6.815464 4.766120
v -19.029278 -0.500000 8.178931
v -17.500843 4.177391 7.910693
v -16.752598 4.177391 6.055937
v -19.029278 3.792689 8.178931
v -17.807840 -0.500000 8.671682
v -17.059597 -0.500000 6.816926
v -17.807840 3.792689 8.671682
v -13.800000 1.979512 -1.000000
v -15.871527 2.265463 1.250000
v -15.871527 2.265463 1.250000
v -13.800000 -0.500000 1.000000
v -15.871527 2.265463 1.250000
v -14.802189 -0.500000 -1.000000
v -14.802189 -0.500000 1.000000
v -14.802189 2.765101 1.000000
v -14.802189 2.765101 -1.000000
v -17.944401 -0.500000 -0.756478
v -16.636364 -0.500000 0.756478
v -16.636364 3.464720 0.756478
v -17.944401 3.792689 -0.756478
v -19.244171 -0.500000 0.367247
v -17.936134 -0.500000 1.880203
v -17.936134 3.792689 1.880203
v -19.244171 3.792689 0.367247
v -19.244171 -0.500000 0.367247
v -17.936134 3.792689 1.880203
v -17.936134 -0.500000 1.880203
v -19.244171 3.792689 0.367247
v -19.244171 3.792689 0.367247
v -20.512886 -0.500000 1.513264
v -18.844784 -0.500000 2.616639
v -18.844784 3.792689 2.616639
v -20.512886 3.792689 1.513264
v -21.211781 -0.500000 2.697516
v -19.254419 -0.500000 3.108283
v -19.254419 3.792689 3.108283
v -21.211781 3.792689 2.697516
v -21.451130 -0.500000 4.137625
v -19.472340 -0.500000 3.847136
v -19.472340 3.792689 3.847136
v -21.451130 3.792689 4.137625
v -21.279409 -0.500000 5.184744
v -19.390446 -0.500000 4.527624
v -19.390446 3.792689 4.527624
v -21.279409 3.792689 5.184744
v -20.894695 -0.500000 6.205667
v -19.212671 -0.500000 5.123635
v -19.212671 3.792689 5.123635
v -20.894695 3.792689 6.205667
v -20.189571 -0.500000 7.231627
v -18.866669 -0.500000 5.731654
v -18.866669 3.792689 5.731654
v -20.189571 3.792689 7.231627
v -19.029278 -0.500000 8.178931
v -18.281033 -0.500000 6.324175
v -18.281033 3.792689 6.324175
v -19.029278 3.792689 8.178931
v -17.059597 3.792689 6.816926
v -17.807840 3.792689 8.671682
v -17.059597 3.792689 6.816926
v -17.807840 3.792689 8.671682
v -16.105818 3.792689 7.226424
v -16.105818 -0.500000 7.226424
v -17.807840 3.792689 8.671682
v -17.059597 3.792689 6.816926
v -17.059597 3.792689 6.816926
v -17.807840 3.792689 8.671682
v -16.346069 -0.500000 9.211940
v -16.105818 3.792689 7.226424
v -16.105818 3.792689 7.226424
v -16.346069 3.792689 9.211940
v -16.105818 3.792689 7.226424
v -16.346069 3.792689 9.211940
v -16.105818 3.792689 7.226424
v -16.346069 3.792689 9.211940
v -15.109679 4.287522 7.422460
v -15.374786 4.248167 9.448828
v -15.109679 4.287522 7.422460
v -15.374786 4.248167 9.448828
v -15.109679 4.287522 7.422460
v -15.374786 4.248167 9.448828
v -14.043982 4.787522 7.422460
v -14.227508 4.748167 9.448828
v -14.043982 -0.500000 7.422460
v -14.227508 -0.539356 9.448828
v -14.043982 4.787522 7.422460
v -14.227508 4.748167 9.448828
v -14.043982 -0.500000 7.422460
v -14.227508 -0.539356 9.448828
v -14.043982 4.787522 7.422460
v -14.227508 4.748167 9.448828
v -14.043982 -0.500000 7.422460
v -14.227508 -0.539356 9.448828
v -14.051181 4.787522 7.421834
v -14.220308 4.748167 9.449454
v -14.051181 -0.500000 7.421834
v -14.220308 -0.539356 9.449454
v -13.287309 4.787522 7.489026
v -13.288689 4.748167 9.523687
v -13.287309 -0.500000 7.489026
v -13.288689 -0.539356 9.523687
v -12.324997 4.787522 7.489678
v -12.326377 4.748167 9.524340
v -12.324997 -0.500000 7.489678
v -12.326377 -0.539356 9.524340
v -9.646874 4.787522 7.491494
v -9.648254 4.748167 9.526155
v -9.646874 -0.500000 7.491494
v -9.648254 -0.539356 9.526155
v -8.921632 -10.999663 -1.051134
v -8.921632 -10.999663 0.948866
v -0.921632 -10.999663 -1.051134
v -0.921632 -10.999663 0.948866
v -19.165802 -10.999663 0.316112
v -17.857765 -10.999663 1.829069
v -18.950909 -10.999663 8.127797
v -18.202665 -10.999663 6.273040
v -18.950909 -10.999663 8.127797
v -18.202665 -10.999663 6.273040
v -17.729473 -10.999663 8.620548
v -16.981228 -10.999663 6.765791
v -14.723821 -10.999663 -1.051134
v -14.723821 -10.999663 0.948866
v -17.866032 -10.999663 -0.807613
v -16.557995 -10.999663 0.705344
v -19.165802 -10.999663 0.316112
v -17.857765 -10.999663 1.829069
v -19.165802 -10.999663 0.316112
v -17.857765 -10.999663 1.829069
v -20.434517 -10.999663 1.462130
v -18.766417 -10.999663 2.565505
v -21.133413 -10.999663 2.646382
v -19.176052 -10.999663 3.057148
v -21.372763 -10.999663 4.086491
v -19.393972 -10.999663 3.796002
v -21.201042 -10.999663 5.133609
v -19.312077 -10.999663 4.476490
v -20.816326 -10.999663 6.154532
v -19.134304 -10.999663 5.072501
v -20.111204 -10.999663 7.180492
v -18.788300 -10.999663 5.680519
v -16.267700 -10.999663 9.160806
v -16.027451 -10.999663 7.175290
v -13.965613 -10.999663 7.371325
v -14.149139 -11.039019 9.397694
v -13.965613 -10.999663 7.371325
v -14.149139 -11.039019 9.397694
v -13.965613 -10.999663 7.371325
v -14.149139 -11.039019 9.397694
v -13.972813 -10.999663 7.370699
v -14.141940 -11.039019 9.398320
v -13.208941 -10.999663 7.437891
v -13.210320 -11.039019 9.472553
v -12.246629 -10.999663 7.438543
v -12.248009 -11.039019 9.473206
v -9.568506 -10.999663 7.440359
v -9.569886 -11.039019 9.475021
vt 0.375000 0.000000
vt 0.625000 0.000000
vt 0.625000 0.250000
vt 0.375000 0.250000
vt 0.375000 0.250000
vt 0.625000 0.250000
vt 0.625000 0.500000
vt 0.375000 0.500000
vt 0.000000 0.000000
vt 0.000000 0.000000
vt 0.000000 0.000000
vt 0.000000 0.000000
vt 0.125000 0.500000
vt 0.375000 0.500000
vt 0.375000 0.750000
vt 0.125000 0.750000
vt 0.625000 0.500000
vt 0.875000 0.500000
vt 0.875000 0.750000
vt 0.625000 0.750000
vt 0.625000 0.500000
vt 0.625000 0.500000
vt 0.625000 0.500000
vt 0.625000 0.500000
vt 0.625000 0.000000
vt 0.625000 0.250000
vt 0.625000 0.250000
vt 0.625000 0.000000
vt 0.625000 0.250000
vt 0.625000 0.000000
vt 0.625000 0.000000
vt 0.625000 0.250000
vt 0.875000 0.500000
vt 0.625000 0.500000
vt 0.625000 0.500000
vt 0.875000 0.500000
vt 0.625000 0.500000
vt 0.875000 0.500000
vt 0.375000 0.500000
vt 0.625000 0.500000
vt 0.625000 0.500000
vt 0.375000 0.500000
vt 0.625000 0.000000
vt 0.625000 0.250000
vt 0.375000 0.500000
vt 0.625000 0.500000
vt 0.625000 0.500000
vt 0.625000 0.500000
vt 0.625000 0.500000
vt 0.625000 0.500000
vt 0.625000 0.000000
vt 0.625000 0.250000
vt 0.375000 0.500000
vt 0.625000 0.500000
vt 0.625000 0.500000
vt 0.375000 0.500000
vt 0.625000 0.500000
vt 0.875000 0.500000
vt 0.625000 0.500000
vt 0.625000 0.500000
vt 0.625000 0.500000
vt 0.875000 0.500000
vt 0.625000 0.500000
vt 0.625000 0.500000
vt 0.875000 0.500000
vt 0.375000 0.500000
vt 0.375000 0.500000
vt 0.625000 0.000000
vt 0.625000 0.250000
vt 0.375000 0.500000
vt 0.375000 0.500000
vt 0.375000 0.500000
vt 0.375000 0.500000
vt 0.000000 0.000000
vt 0.000000 0.000000
vt 0.000000 0.000000
vt 0.000000 0.000000
vt 0.625000 0.000000
vt 0.625000 0.250000
vt 0.625000 0.500000
vt 0.375000 0.500000
vt 0.625000 0.500000
vt 0.875000 0.500000
vt 0.625000 0.500000
vt 0.625000 0.250000
vt 0.625000 0.000000
vt 0.625000 0.000000
vt 0.625000 0.250000
vt 0.375000 0.500000
vt 0.375000 0.500000
vt 0.625000 0.500000
vt 0.625000 0.500000
vt 0.875000 0.500000
vt 0.375000 0.500000
vt 0.375000 0.500000
vt 0.375000 0.500000
vt 0.375000 0.500000
vt 0.875000 0.500000
vt 0.875000 0.500000
vt 0.625000 0.500000
vt 0.375000 0.500000
vt 0.625000 0.000000
vt 0.625000 0.250000
vt 0.625000 0.250000
vt 0.625000 0.000000
vt 0.625000 0.000000
vt 0.625000 0.250000
vt 0.625000 0.500000
vt 0.375000 0.500000
vt 0.625000 0.500000
vt 0.625000 0.500000
vt 0.875000 0.500000
vt 0.875000 0.500000
vt 0.375000 0.500000
vt 0.375000 0.500000
vt 0.625000 0.500000
vt 0.375000 0.500000
vt 0.625000 0.500000
vt 0.625000 0.500000
vt 0.625000 0.000000
vt 0.625000 0.250000
vt 0.000000 0.000000
vt 0.000000 0.000000
vt 0.000000 0.000000
vt 0.000000 0.000000
vt 0.625000 0.250000
vt 0.625000 0.000000
vt 0.625000 0.000000
vt 0.625000 0.250000
vt 0.625000 0.250000
vt 0.625000 0.000000
vt 0.625000 0.000000
vt 0.625000 0.250000
vt 0.875000 0.500000
vt 0.875000 0.500000
vt 0.625000 0.500000
vt 0.625000 0.500000
vt 0.625000 0.500000
vt 0.375000 0.500000
vt 0.000000 0.000000
vt 0.000000 0.000000
vt 0.000000 0.000000
vt 0.000000 0.000000
vt 0.625000 0.500000
vt 0.375000 0.500000
vt 0.625000 0.250000
vt 0.375000 0.500000
vt 0.375000 0.500000
vt 0.625000 0.250000
vt 0.375000 0.750000
vt 0.625000 0.000000
vt 0.625000 0.250000
vt 0.625000 0.250000
vt 0.625000 0.000000
vt 0.000000 0.000000
vt 0.000000 0.000000
vt 0.625000 0.000000
vt 0.625000 0.250000
vt 0.625000 0.000000
vt 0.625000 0.250000
vt 0.625000 0.000000
vt 0.625000 0.250000
vt 0.625000 0.000000
vt 0.625000 0.250000
vt 0.625000 0.000000
vt 0.625000 0.250000
vt 0.625000 0.000000
vt 0.625000 0.250000
vt 0.625000 0.000000
vt 0.625000 0.250000
vt 0.000000 0.000000
vt 0.000000 0.000000
vt 0.000000 0.000000
vt 0.000000 0.000000
vt 0.000000 0.000000
vt 0.000000 0.000000
vt 0.000000 0.000000
vt 0.000000 0.000000
vt 0.000000 0.000000
vt 0.000000 0.000000
vt 0.000000 0.000000
vt 0.000000 0.000000
vt 0.000000 0.000000
vt 0.000000 0.000000
vt 0.000000 0.000000
vt 0.000000 0.000000
vt 0.000000 0.000000
vt 0.000000 0.000000
vt 0.625000 0.500000
vt 0.625000 0.500000
vt 0.000000 0.000000
vt 0.000000 0.000000
vt 0.000000 0.000000
vt 0.000000 0.000000
vt 0.625000 0.500000
vt 0.625000 0.500000
vt 0.000000 0.000000
vt 0.000000 0.000000
vt 0.000000 0.000000
vt 0.625000 0.750000
vt 0.625000 0.000000
vt 0.625000 0.250000
vt 0.625000 0.250000
vt 0.625000 0.000000
vt 0.625000 0.000000
vt 0.625000 0.250000
vt 0.000000 0.000000
vt 0.000000 0.000000
vt 0.000000 0.000000
vt 0.000000 0.000000
vt 0.000000 0.000000
vt 0.000000 0.000000
vt 0.375000 0.500000
vt 0.000000 0.000000
vt 0.000000 0.000000
vt 0.000000 0.000000
vt 0.000000 0.000000
vt 0.000000 0.000000
vt 0.625000 0.000000
vt 0.625000 0.250000
vt 0.625000 0.250000
vt 0.625000 0.000000
vt 0.000000 0.000000
vt 0.000000 0.000000
vt 0.000000 0.000000
vt 0.000000 0.000000
vt 0.375000 0.750000
vt 0.625000 1.000000
vt 0.375000 1.000000
vt 0.375000 0.750000
vt 0.375000 1.000000
vt 0.375000 1.000000
vt 0.375000 0.750000
vt 0.375000 1.000000
vt 0.375000 0.750000
vt 0.375000 1.000000
vt 0.375000 0.750000
vt 0.375000 1.000000
vt 0.375000 0.750000
vt 0.375000 0.750000
vt 0.375000 1.000000
vt 0.375000 1.000000
vt 0.375000 0.750000
vt 0.375000 0.750000
vt 0.375000 1.000000
vt 0.375000 1.000000
vt 0.375000 0.750000
vt 0.375000 1.000000
vt 0.375000 0.750000
vt 0.375000 1.000000
vt 0.375000 0.750000
vt 0.375000 1.000000
vt 0.375000 0.750000
vt 0.375000 1.000000
vt 0.375000 0.750000
vt 0.375000 1.000000
vt 0.375000 0.750000
vt 0.375000 1.000000
vt 0.375000 0.750000
vt 0.000000 0.000000
vt 0.000000 0.000000
vt 0.000000 0.000000
vt 0.000000 0.000000
vt 0.000000 0.000000
vt 0.625000 0.500000
vt 0.625000 0.500000
vt 0.375000 0.500000
vt 0.375000 0.250000
vt 0.375000 0.500000
vt 0.375000 0.500000
vt 0.125000 0.750000
vt 0.125000 0.500000
vn 0.0000 1.0000 0.0000
vn 0.0000 0.0000 1.0000
vn 0.0876 0.0055 -0.9961
vn 1.0000 0.0000 0.0000
vn 0.0000 0.0000 -1.0000
vn -0.9357 -0.0087 0.3526
vn -0.3741 0.0000 0.9274
vn 0.3741 0.0000 -0.9274
vn -0.8612 -0.0040 -0.5082
vn 0.3637 0.9315 0.0000
vn -0.1316 0.0000 0.9913
vn -0.6324 -0.0085 0.7746
vn -0.6540 -0.0000 -0.7565
vn -0.0773 0.0000 -0.9970
vn 0.3741 0.0073 -0.9274
vn 0.3277 0.9442 -0.0339
vn -0.0794 -0.0054 0.9968
vn 0.1248 0.9922 -0.0004
vn 0.6540 0.0000 0.7565
vn 0.6540 0.0012 0.7565
vn 0.9582 0.0085 -0.2858
vn -0.8612 0.0000 -0.5082
vn -0.6703 -0.0000 -0.7421
vn 0.6296 0.0000 0.7769
vn 0.7683 0.0000 0.6401
vn -0.9864 -0.0066 -0.1639
vn -0.9868 0.0000 0.1618
vn 0.0000 -0.0049 1.0000
vn -0.9865 0.0000 -0.1640
vn 0.9592 0.0000 0.2829
vn 0.9583 0.0000 -0.2858
vn 0.9928 0.0000 -0.1195
vn -0.3467 -0.0072 0.9380
vn 1.0000 0.0075 0.0008
vn -0.9358 0.0000 0.3526
vn -0.6324 0.0000 0.7746
vn -0.6540 -0.0012 -0.7565
vn -0.8241 0.0000 0.5664
vn 0.8691 0.0000 -0.4946
vn 0.7112 0.0000 -0.7030
vn 0.3945 0.0000 -0.9189
vn 0.9591 0.0058 0.2829
vn 0.9928 0.0000 0.1201
vn -0.3467 0.0000 0.9380
vn -0.4265 0.9034 -0.0449
vn -0.4116 0.9109 -0.0279
vn -0.1052 -0.0133 0.9944
vn 0.0896 0.0105 -0.9959
vn 0.0000 0.0049 -1.0000
vn -0.3741 -0.0073 0.9274
vn -0.0866 0.0000 0.9962
vn -0.0016 0.9998 0.0193
vn -0.0867 0.0000 0.9962
vn 0.0946 0.0056 -0.9955
vn -0.0007 0.0000 1.0000
vn -0.0794 0.0000 0.9968
vn 0.3945 0.0074 -0.9189
vn 0.0876 0.0000 -0.9962
vn 0.0007 0.0000 -1.0000
vn -0.8241 -0.0089 0.5664
vn -0.0000 0.9998 0.0193
vn 1.0000 0.0000 0.0007
vn 0.0000 -1.0000 0.0000
vn -0.0083 -0.9999 -0.0107
vn 0.0016 -0.9998 -0.0193
vn 0.0000 -0.9998 -0.0193
vn 0.0007 0.0049 -1.0000
vn -0.9868 -0.0082 0.1618
vn 0.7112 0.0087 -0.7029
vn -0.0007 -0.0049 1.0000
vn 0.7683 0.0026 0.6401
vn -0.1316 -0.0058 0.9913
vn -0.0866 -0.0055 0.9962
vn -0.0773 0.0043 -0.9970
vn 0.6296 0.0009 0.7769
vn 1.0000 0.0075 0.0000
vn 0.9928 0.0080 -0.1195
vn -0.0867 -0.0055 0.9962
vn -0.6703 -0.0014 -0.7421
vn 0.8691 0.0089 -0.4946
vn -0.1112 -0.0057 0.9938
usemtl Material
s off
f 1/1/1 5/2/1 7/3/1 3/4/1
f 4/5/2 3/6/2 7/7/2 8/8/2
f 117/9/3 121/10/3 173/11/3 171/12/3
f 2/13/4 1/14/4 3/15/4 4/16/4
f 6/17/5 5/18/5 1/19/5 2/20/5
f 67/21/6 63/22/6 157/23/6 159/24/6
f 80/25/2 79/26/2 81/27/2 82/28/2
f 14/29/1 25/30/1 28/31/1 20/32/1
f 78/33/2 75/34/2 22/35/2 25/36/2
f 25/36/7 22/35/7 26/37/7 28/38/7
f 15/39/8 14/40/8 20/41/8 27/42/8
f 81/27/1 82/28/1 92/43/1 91/44/1
f 76/45/2 77/46/2 14/40/2 15/39/2
f 55/47/9 51/48/9 151/49/9 153/50/9
f 7/3/10 5/2/10 37/51/10 36/52/10
f 35/53/11 36/54/11 40/55/11 39/56/11
f 5/18/5 6/17/5 34/57/5 37/58/5
f 8/8/2 7/7/2 36/54/2 35/53/2
f 75/34/12 71/59/12 161/60/12 139/61/12
f 41/62/13 38/63/13 42/64/13 45/65/13
f 37/58/14 34/57/14 38/63/14 41/62/14
f 15/39/15 27/42/15 142/66/15 138/67/15
f 36/52/16 37/51/16 41/68/16 40/69/16
f 12/70/2 48/71/2 150/72/2 136/73/2
f 122/74/17 118/75/17 172/76/17 174/77/17
f 40/69/18 41/68/18 45/78/18 44/79/18
f 39/56/19 40/55/19 44/80/19 43/81/19
f 45/65/2 42/64/2 13/82/2 49/83/2
f 43/81/2 44/80/2 11/84/2 12/70/2
f 11/85/2 49/86/2 50/87/2 47/88/2
f 44/79/2 45/78/2 49/86/2 11/85/2
f 39/56/20 43/81/20 148/89/20 146/90/20
f 12/70/2 11/84/2 47/91/2 48/71/2
f 49/83/2 13/82/2 46/92/2 50/93/2
f 64/94/21 68/95/21 160/96/21 158/97/21
f 54/98/22 51/48/22 55/47/22 58/99/22
f 50/93/23 46/92/23 51/48/23 54/98/23
f 48/71/24 47/91/24 53/100/24 52/101/24
f 47/88/1 50/87/1 54/102/1 53/103/1
f 57/104/1 58/105/1 62/106/1 61/107/1
f 52/101/25 53/100/25 57/108/25 56/109/25
f 53/103/1 54/102/1 58/105/1 57/104/1
f 59/110/26 55/47/26 153/50/26 155/111/26
f 62/112/27 59/110/27 63/22/27 66/113/27
f 8/8/28 35/53/28 144/114/28 132/115/28
f 58/99/29 55/47/29 59/110/29 62/112/29
f 56/109/30 57/108/30 61/116/30 60/117/30
f 64/94/31 65/118/31 69/119/31 68/95/31
f 60/117/32 61/116/32 65/118/32 64/94/32
f 61/107/1 62/106/1 66/120/1 65/121/1
f 89/122/33 26/123/33 141/124/33 163/125/33
f 69/126/1 70/127/1 74/128/1 73/129/1
f 65/121/1 66/120/1 70/127/1 69/126/1
f 129/130/34 130/131/34 178/132/34 177/133/34
f 66/113/35 63/22/35 67/21/35 70/134/35
f 74/135/36 71/59/36 75/34/36 78/33/36
f 42/64/37 38/63/37 145/136/37 147/137/37
f 70/134/38 67/21/38 71/59/38 74/135/38
f 68/95/39 69/119/39 73/138/39 72/139/39
f 14/29/1 25/30/1 77/46/1 73/129/1 74/135/1 78/33/1
f 72/139/40 73/138/40 77/46/40 76/45/40
f 28/31/2 20/32/2 79/26/2 80/25/2
f 109/140/2 113/141/2 169/142/2 167/143/2
f 27/42/41 20/41/41 83/144/41 84/145/41
f 79/26/2 81/27/2 91/44/2 90/146/2
f 56/109/42 60/117/42 156/147/42 154/148/42
f 20/32/2 79/26/2 90/146/2 83/149/2
f 92/43/43 89/150/43 84/145/43 83/149/43 90/146/43 91/44/43
f 85/151/2 86/152/2 87/153/2 88/154/2
f 82/28/2 81/27/2 86/152/2 85/151/2
f 82/155/44 26/123/44 89/122/44 92/156/44
f 91/44/2 92/43/2 94/157/2 93/158/2
f 93/158/2 94/157/2 96/159/2 95/160/2
f 95/160/45 96/159/45 98/161/45 97/162/45
f 97/162/2 98/161/2 100/163/2 99/164/2
f 99/164/2 100/163/2 102/165/2 101/166/2
f 101/166/46 102/165/46 104/167/46 103/168/46
f 103/168/2 104/167/2 108/169/2 107/170/2
f 89/122/47 106/171/47 104/172/47 102/173/47 100/174/47 98/175/47 96/176/47 94/177/47 92/156/47
f 90/178/48 91/179/48 93/180/48 95/181/48 97/182/48 99/183/48 101/184/48 103/185/48 105/186/48 84/187/48 83/188/48
f 34/57/49 6/17/49 131/189/49 143/190/49
f 108/191/2 110/192/2 114/193/2 112/194/2
f 104/172/2 106/171/2 110/192/2 108/191/2
f 26/37/50 22/35/50 137/195/50 141/196/50
f 105/186/2 103/185/2 107/197/2 109/140/2
f 113/141/51 111/198/51 115/199/51 117/9/51
f 6/17/49 2/20/49 133/200/49 131/189/49
f 109/140/2 107/197/2 111/198/2 113/141/2
f 107/170/2 108/169/2 112/201/2 111/202/2
f 115/203/52 116/204/52 120/205/52 119/206/52
f 111/202/5 112/201/5 116/204/5 115/203/5
f 112/194/53 114/193/53 118/75/53 116/207/53
f 84/187/54 105/186/54 165/208/54 164/209/54
f 120/210/55 122/74/55 126/211/55 124/212/55
f 116/207/56 118/75/56 122/74/56 120/210/56
f 27/42/57 84/145/57 164/213/57 142/66/57
f 117/9/58 115/199/58 119/214/58 121/10/58
f 125/215/59 123/216/59 127/217/59 129/218/59
f 71/59/60 67/21/60 159/24/60 161/60/60
f 121/10/59 119/214/59 123/216/59 125/215/59
f 119/206/61 120/205/61 124/219/61 123/220/61
f 127/221/62 128/222/62 130/131/62 129/130/62
f 123/220/61 124/219/61 128/222/61 127/221/61
f 124/212/55 126/211/55 130/223/55 128/224/55
f 114/193/2 110/192/2 168/225/2 170/226/2
f 131/227/63 133/200/63 134/228/63 132/229/63
f 139/230/2 140/231/2 138/232/2 137/233/2
f 137/233/63 138/232/63 142/234/63 141/235/63
f 131/227/63 132/229/63 144/236/63 143/237/63
f 143/237/63 144/236/63 146/238/63 145/239/63
f 147/240/2 148/241/2 136/242/2 135/243/2
f 145/239/63 146/238/63 148/241/63 147/240/63
f 149/244/63 150/245/63 152/246/63 151/247/63
f 135/243/2 136/242/2 150/245/2 149/244/2
f 151/247/63 152/246/63 154/248/63 153/249/63
f 153/249/63 154/248/63 156/250/63 155/251/63
f 155/251/63 156/250/63 158/252/63 157/253/63
f 157/253/63 158/252/63 160/254/63 159/255/63
f 159/255/63 160/254/63 162/256/63 161/257/63
f 161/257/63 162/256/63 140/231/63 139/230/63
f 141/235/63 142/234/63 164/258/63 163/259/63
f 166/260/64 163/125/64 164/209/64 165/208/64
f 166/260/2 165/208/2 167/143/2 168/225/2
f 168/225/2 167/143/2 169/142/2 170/226/2
f 170/226/2 169/142/2 171/12/2 172/76/2
f 172/76/65 171/12/65 173/11/65 174/77/65
f 174/77/66 173/11/66 175/261/66 176/262/66
f 176/262/66 175/261/66 177/263/66 178/264/66
f 46/92/2 13/82/2 135/265/2 149/266/2
f 125/215/67 129/218/67 177/263/67 175/261/67
f 22/35/2 75/34/2 139/61/2 137/195/2
f 76/45/2 15/39/2 138/67/2 140/267/2
f 110/192/2 106/171/2 166/260/2 168/225/2
f 4/5/28 8/8/28 132/115/28 134/268/28
f 63/22/68 59/110/68 155/111/68 157/23/68
f 72/139/69 76/45/69 140/267/69 162/269/69
f 13/82/2 42/64/2 147/137/2 135/265/2
f 130/223/70 126/211/70 176/262/70 178/264/70
f 52/101/71 56/109/71 154/148/71 152/270/71
f 105/186/2 109/140/2 167/143/2 165/208/2
f 35/53/72 39/56/72 146/90/72 144/114/72
f 113/141/73 117/9/73 171/12/73 169/142/73
f 43/81/2 12/70/2 136/73/2 148/89/2
f 38/63/74 34/57/74 143/190/74 145/136/74
f 126/211/70 122/74/70 174/77/70 176/262/70
f 48/71/75 52/101/75 152/270/75 150/72/75
f 2/13/76 4/16/76 134/271/76 133/272/76
f 60/117/77 64/94/77 158/97/77 156/147/77
f 118/75/78 114/193/78 170/226/78 172/76/78
f 51/48/79 46/92/79 149/266/79 151/49/79
f 68/95/80 72/139/80 162/269/80 160/96/80
f 121/10/67 125/215/67 175/261/67 173/11/67
f 106/171/81 89/122/81 163/125/81 166/260/81
l 30 18
l 31 33
l 10 9
