# Blender v2.80 (sub 50) OBJ File: 'Right-Room-Floor-Entrance.blend'
# www.blender.org
mtllib Right-Room-Floor-Entrance.mtl
o Cube
v -1.000000 0.127517 -2.300000
v -1.000000 -0.127517 -2.300000
v -1.000000 0.127517 2.300000
v -1.000000 -0.127517 2.300000
v -7.000893 -0.127517 -2.300000
v -7.000893 -0.127517 2.300000
v -7.000893 0.127517 2.300000
v -7.000893 0.127517 -2.300000
v -1.000000 -0.127517 12.962384
v -1.000000 0.127517 12.962384
v -7.000893 -0.127517 12.962384
v -7.000893 0.127517 12.962384
v -7.000893 -0.127517 -2.300000
v -7.000893 -0.127517 2.300000
v -7.000893 0.127517 2.300000
v -7.000893 0.127517 -2.300000
v -7.000893 -0.127517 12.962384
v -7.000893 0.127517 12.962384
v -1.000000 10.867517 12.962384
v -1.000000 0.127517 12.962384
v -0.991272 0.000000 12.961868
v -1.000000 0.127517 12.962384
v -0.129188 10.867517 14.766768
v 1.038988 10.867517 12.989939
v -4.796582 0.127517 14.962384
v -7.000893 0.127517 12.962384
v -1.000000 -0.119036 12.962384
v -7.000893 0.127517 14.962384
v -7.000893 0.127517 12.962384
v -0.129188 0.127517 14.766768
v -0.129188 -0.119036 14.766768
v -1.000000 -0.119036 12.962384
v -1.000000 0.127517 12.962384
v -0.129188 0.127517 14.766768
v -1.000000 -0.119036 12.962384
v -1.000000 0.127517 12.962384
v -1.000000 -0.119036 12.962384
v -1.000000 0.127517 12.962384
v -1.000000 -0.119036 12.962384
v -1.000000 0.127517 12.962384
v 1.038988 -0.119036 12.989939
v 1.038988 0.127517 12.989939
v 1.038988 -0.119036 12.989939
v 1.038988 0.127517 12.989939
v -1.000000 -0.127517 -2.300000
v -1.000000 -0.127517 2.300000
v -0.129188 -0.119036 14.766768
v -0.129188 0.127517 14.766768
v -1.000000 0.127517 12.962384
v -1.000000 -0.127517 12.962384
v -1.000000 -0.127517 12.962384
v -1.000000 -0.127517 12.962384
v -1.000000 -0.127517 12.962384
v -1.000000 -0.127517 12.962384
v -1.000000 -0.127517 12.962384
v 1.038988 -0.127517 12.989939
v 1.038988 -0.127517 12.989939
v -0.129188 -0.127517 14.766768
v -1.000000 0.127517 12.962384
v -1.000000 0.127517 12.962384
v -1.000000 0.127517 12.962384
v -1.000000 0.127517 12.962384
v -1.000000 0.127517 12.962384
v -1.000000 0.127517 12.962384
v 1.038988 0.127517 12.989939
v 1.038988 0.127517 12.989939
v -0.129188 0.127517 14.766768
v -2.913733 0.127517 14.916461
v -1.030885 0.127517 14.847576
v -1.030885 0.127517 14.847576
v -1.030885 0.127517 14.847576
v -7.000893 0.127517 14.962384
v -4.796582 0.127517 14.962384
v -7.000893 0.127517 12.962384
v -2.913733 0.127517 14.916461
v -1.030885 0.127517 14.847576
v -1.030885 0.127517 14.847576
v -1.030885 0.127517 14.847576
v -1.000000 0.127517 12.962384
v -7.000893 0.127517 14.962384
v -4.796582 0.127517 14.962384
v -7.000893 0.127517 12.962384
v -2.913733 0.127517 14.916461
v -1.030885 0.127517 14.847576
v -1.030885 0.127517 14.847576
v -1.030885 0.127517 14.847576
v -1.000000 0.127517 12.962384
v -7.000893 -0.127517 14.962384
v -4.796582 -0.127517 14.962384
v -7.000893 -0.127517 12.962384
v -2.913733 -0.127517 14.916461
v -1.030885 -0.127517 14.847576
v -1.030885 -0.127517 14.847576
v -1.030885 -0.127517 14.847576
v -1.000000 -0.127517 12.962384
v -1.030885 -0.127517 14.847576
v -0.129188 -0.127517 14.766768
v -1.000000 -0.127517 12.962384
v -1.000000 -0.117608 12.962384
v -0.129188 -0.117608 14.766768
v 1.038988 -0.117608 12.989939
v -7.000893 0.127517 14.962384
v -4.796582 0.127517 14.962384
v -7.000893 0.127517 12.962384
v -2.913733 0.127517 14.916461
v -1.030885 0.127517 14.847576
v -1.030885 0.127517 14.847576
v -1.030885 0.127517 14.847576
v -1.000000 0.127517 12.962384
v -0.129188 0.127517 14.766768
v -1.000000 0.127517 12.962384
v -7.000893 10.867517 14.962384
v -4.796582 10.867517 14.962384
v -7.000893 10.867517 12.962384
v -2.913733 10.867517 14.916461
v -1.030885 10.867517 14.847576
v -1.030885 10.867517 14.847576
v -1.030885 10.867517 14.847576
v -1.000000 10.867517 12.962384
v -1.030885 0.127517 14.847576
v -0.129188 0.127517 14.766768
v -1.000000 0.127517 12.962384
v -1.030885 10.867517 14.847576
v -0.129188 10.867517 14.766768
v -1.000000 10.867517 12.962384
v -1.030885 10.867517 14.847576
v -0.129188 10.867517 14.766768
v -1.000000 10.867517 12.962384
v -9.065567 -0.127517 -2.300000
v -9.065567 -0.127517 2.300000
v -9.065567 0.127517 2.300000
v -9.065567 0.127517 -2.300000
v -0.424519 0.127517 -2.300000
v 0.080422 0.127517 -2.100844
v -0.424519 0.127517 -2.300000
v 0.080422 0.127517 -2.100844
v 1.000000 -0.127517 2.300000
v 1.000000 0.127517 2.300000
v 1.000000 0.127517 -2.300000
v 1.000000 -0.127517 -2.300000
v 1.000000 -0.127517 2.300000
v -1.000000 0.127517 2.300000
v -1.000000 -0.127517 2.300000
v -1.000000 0.127517 -2.300000
v -1.000000 -0.127517 -2.300000
v -7.000893 -0.127517 2.300000
v -7.000893 -0.127517 -2.300000
v -7.000893 0.127517 -2.300000
v -7.000893 0.127517 2.300000
v -1.000000 -0.127517 -12.962384
v -1.000000 0.127517 -12.962384
v -7.000893 -0.127517 -12.962384
v -7.000893 0.127517 -12.962384
v -7.000893 -0.127517 2.300000
v -7.000893 -0.127517 -2.300000
v -7.000893 0.127517 -2.300000
v -7.000893 0.127517 2.300000
v -7.000893 -0.127517 -12.962384
v -7.000893 0.127517 -12.962384
v -1.000000 10.867517 -12.962384
v -1.000000 0.127517 -12.962384
v -0.991272 0.000000 -12.961868
v -1.000000 0.127517 -12.962384
v -0.129188 10.867517 -14.766768
v 1.038988 10.867517 -12.989939
v -4.796582 0.127517 -14.962384
v -7.000893 0.127517 -12.962384
v -1.000000 -0.119036 -12.962384
v -7.000893 0.127517 -14.962384
v -7.000893 0.127517 -12.962384
v -0.129188 0.127517 -14.766768
v -0.129188 -0.119036 -14.766768
v -1.000000 -0.119036 -12.962384
v -1.000000 0.127517 -12.962384
v -0.129188 0.127517 -14.766768
v -1.000000 -0.119036 -12.962384
v -1.000000 0.127517 -12.962384
v -1.000000 -0.119036 -12.962384
v -1.000000 0.127517 -12.962384
v -1.000000 -0.119036 -12.962384
v -1.000000 0.127517 -12.962384
v 1.038988 -0.119036 -12.989939
v 1.038988 0.127517 -12.989939
v 1.038988 -0.119036 -12.989939
v 1.038988 0.127517 -12.989939
v -1.000000 -0.127517 2.300000
v -1.000000 -0.127517 -2.300000
v -0.129188 -0.119036 -14.766768
v -0.129188 0.127517 -14.766768
v -1.000000 0.127517 -12.962384
v -1.000000 -0.127517 -12.962384
v -1.000000 -0.127517 -12.962384
v -1.000000 -0.127517 -12.962384
v -1.000000 -0.127517 -12.962384
v -1.000000 -0.127517 -12.962384
v -1.000000 -0.127517 -12.962384
v 1.038988 -0.127517 -12.989939
v 1.038988 -0.127517 -12.989939
v -0.129188 -0.127517 -14.766768
v -1.000000 0.127517 -12.962384
v -1.000000 0.127517 -12.962384
v -1.000000 0.127517 -12.962384
v -1.000000 0.127517 -12.962384
v -1.000000 0.127517 -12.962384
v -1.000000 0.127517 -12.962384
v 1.038988 0.127517 -12.989939
v 1.038988 0.127517 -12.989939
v -0.129188 0.127517 -14.766768
v -2.913733 0.127517 -14.916461
v -1.030885 0.127517 -14.847576
v -1.030885 0.127517 -14.847576
v -1.030885 0.127517 -14.847576
v -7.000893 0.127517 -14.962384
v -4.796582 0.127517 -14.962384
v -7.000893 0.127517 -12.962384
v -2.913733 0.127517 -14.916461
v -1.030885 0.127517 -14.847576
v -1.030885 0.127517 -14.847576
v -1.030885 0.127517 -14.847576
v -1.000000 0.127517 -12.962384
v -7.000893 0.127517 -14.962384
v -4.796582 0.127517 -14.962384
v -7.000893 0.127517 -12.962384
v -2.913733 0.127517 -14.916461
v -1.030885 0.127517 -14.847576
v -1.030885 0.127517 -14.847576
v -1.030885 0.127517 -14.847576
v -1.000000 0.127517 -12.962384
v -7.000893 -0.127517 -14.962384
v -4.796582 -0.127517 -14.962384
v -7.000893 -0.127517 -12.962384
v -2.913733 -0.127517 -14.916461
v -1.030885 -0.127517 -14.847576
v -1.030885 -0.127517 -14.847576
v -1.030885 -0.127517 -14.847576
v -1.000000 -0.127517 -12.962384
v -1.030885 -0.127517 -14.847576
v -0.129188 -0.127517 -14.766768
v -1.000000 -0.127517 -12.962384
v -1.000000 -0.117608 -12.962384
v -0.129188 -0.117608 -14.766768
v 1.038988 -0.117608 -12.989939
v -7.000893 0.127517 -14.962384
v -4.796582 0.127517 -14.962384
v -7.000893 0.127517 -12.962384
v -2.913733 0.127517 -14.916461
v -1.030885 0.127517 -14.847576
v -1.030885 0.127517 -14.847576
v -1.030885 0.127517 -14.847576
v -1.000000 0.127517 -12.962384
v -0.129188 0.127517 -14.766768
v -1.000000 0.127517 -12.962384
v -7.000893 10.867517 -14.962384
v -4.796582 10.867517 -14.962384
v -7.000893 10.867517 -12.962384
v -2.913733 10.867517 -14.916461
v -1.030885 10.867517 -14.847576
v -1.030885 10.867517 -14.847576
v -1.030885 10.867517 -14.847576
v -1.000000 10.867517 -12.962384
v -1.030885 0.127517 -14.847576
v -0.129188 0.127517 -14.766768
v -1.000000 0.127517 -12.962384
v -1.030885 10.867517 -14.847576
v -0.129188 10.867517 -14.766768
v -1.000000 10.867517 -12.962384
v -1.030885 10.867517 -14.847576
v -0.129188 10.867517 -14.766768
v -1.000000 10.867517 -12.962384
v -9.065567 -0.127517 2.300000
v -9.065567 -0.127517 -2.300000
v -9.065567 0.127517 -2.300000
v -9.065567 0.127517 2.300000
v -0.424519 0.127517 2.300000
v 0.080422 0.127517 2.100844
v -0.424519 0.127517 2.300000
v 0.080422 0.127517 2.100844
v 1.000000 -0.127517 -2.300000
v 1.000000 0.127517 -2.300000
v 1.000000 0.127517 2.300000
v 1.000000 -0.127517 2.300000
v 1.000000 -0.127517 -2.300000
vt 0.875000 0.500000
vt 0.625000 0.500000
vt 0.625000 0.500000
vt 0.875000 0.500000
vt 0.625000 0.500000
vt 0.875000 0.500000
vt 0.375000 0.500000
vt 0.625000 0.500000
vt 0.625000 0.500000
vt 0.375000 0.500000
vt 0.375000 0.750000
vt 0.375000 1.000000
vt 0.375000 1.000000
vt 0.375000 0.750000
vt 0.625000 0.250000
vt 0.625000 0.000000
vt 0.625000 0.000000
vt 0.625000 0.250000
vt 0.625000 0.500000
vt 0.375000 0.500000
vt 0.375000 1.000000
vt 0.375000 1.000000
vt 0.625000 0.250000
vt 0.625000 0.250000
vt 0.625000 0.250000
vt 0.625000 0.250000
vt 0.625000 0.500000
vt 0.875000 0.500000
vt 0.625000 0.500000
vt 0.375000 0.500000
vt 0.375000 0.500000
vt 0.625000 0.500000
vt 0.375000 1.000000
vt 0.375000 0.750000
vt 0.375000 1.000000
vt 0.625000 0.000000
vt 0.000000 0.000000
vt 0.000000 0.000000
vt 0.000000 0.000000
vt 0.000000 0.000000
vt 0.375000 0.750000
vt 0.375000 1.000000
vt 0.000000 0.000000
vt 0.000000 0.000000
vt 0.000000 0.000000
vt 0.000000 0.000000
vt 0.000000 0.000000
vt 0.000000 0.000000
vt 0.000000 0.000000
vt 0.000000 0.000000
vt 0.000000 0.000000
vt 0.000000 0.000000
vt 0.000000 0.000000
vt 0.000000 0.000000
vt 0.000000 0.000000
vt 0.000000 0.000000
vt 0.000000 0.000000
vt 0.000000 0.000000
vt 0.000000 0.000000
vt 0.000000 0.000000
vt 0.000000 0.000000
vt 0.000000 0.000000
vt 0.000000 0.000000
vt 0.000000 0.000000
vt 0.000000 0.000000
vt 0.000000 0.000000
vt 0.000000 0.000000
vt 0.000000 0.000000
vt 0.000000 0.000000
vt 0.000000 0.000000
vt 0.000000 0.000000
vt 0.000000 0.000000
vt 0.000000 0.000000
vt 0.000000 0.000000
vt 0.000000 0.000000
vt 0.000000 0.000000
vt 0.000000 0.000000
vt 0.000000 0.000000
vt 0.000000 0.000000
vt 0.000000 0.000000
vt 0.000000 0.000000
vt 0.000000 0.000000
vt 0.000000 0.000000
vt 0.000000 0.000000
vt 0.000000 0.000000
vt 0.000000 0.000000
vt 0.000000 0.000000
vt 0.000000 0.000000
vt 0.000000 0.000000
vt 0.000000 0.000000
vt 0.000000 0.000000
vt 0.000000 0.000000
vt 0.000000 0.000000
vt 0.000000 0.000000
vt 0.000000 0.000000
vt 0.000000 0.000000
vt 0.000000 0.000000
vt 0.000000 0.000000
vt 0.000000 0.000000
vt 0.000000 0.000000
vt 0.000000 0.000000
vt 0.000000 0.000000
vt 0.000000 0.000000
vt 0.000000 0.000000
vt 0.000000 0.000000
vt 0.000000 0.000000
vt 0.000000 0.000000
vt 0.000000 0.000000
vt 0.000000 0.000000
vt 0.000000 0.000000
vt 0.000000 0.000000
vt 0.000000 0.000000
vt 0.000000 0.000000
vt 0.000000 0.000000
vt 0.000000 0.000000
vt 0.000000 0.000000
vt 0.000000 0.000000
vt 0.000000 0.000000
vt 0.000000 0.000000
vt 0.000000 0.000000
vt 0.000000 0.000000
vt 0.000000 0.000000
vt 0.000000 0.000000
vt 0.000000 0.000000
vt 0.000000 0.000000
vt 0.375000 0.500000
vt 0.625000 0.500000
vt 0.625000 0.750000
vt 0.375000 0.750000
vt 0.000000 0.000000
vt 0.000000 0.000000
vt 0.375000 1.000000
vt 0.625000 0.000000
vt 0.625000 0.250000
vt 0.625000 0.250000
vt 0.625000 0.000000
vt 0.375000 1.000000
vt 0.375000 1.000000
vt 0.375000 0.750000
vt 0.000000 0.000000
vt 0.000000 0.000000
vt 0.000000 0.000000
vt 0.000000 0.000000
vt 0.375000 0.500000
vt 0.625000 0.500000
vt 0.875000 0.500000
vt 0.875000 0.500000
vt 0.625000 0.500000
vt 0.625000 0.500000
vt 0.875000 0.500000
vt 0.625000 0.500000
vt 0.375000 0.500000
vt 0.375000 0.500000
vt 0.625000 0.500000
vt 0.625000 0.500000
vt 0.375000 0.750000
vt 0.375000 0.750000
vt 0.375000 1.000000
vt 0.375000 1.000000
vt 0.625000 0.250000
vt 0.625000 0.250000
vt 0.625000 0.000000
vt 0.625000 0.000000
vt 0.375000 0.500000
vt 0.625000 0.500000
vt 0.375000 1.000000
vt 0.375000 1.000000
vt 0.625000 0.250000
vt 0.625000 0.250000
vt 0.625000 0.250000
vt 0.625000 0.250000
vt 0.875000 0.500000
vt 0.625000 0.500000
vt 0.625000 0.500000
vt 0.625000 0.500000
vt 0.375000 0.500000
vt 0.375000 0.500000
vt 0.375000 0.750000
vt 0.375000 1.000000
vt 0.375000 1.000000
vt 0.625000 0.000000
vt 0.000000 0.000000
vt 0.000000 0.000000
vt 0.000000 0.000000
vt 0.000000 0.000000
vt 0.375000 1.000000
vt 0.375000 0.750000
vt 0.000000 0.000000
vt 0.000000 0.000000
vt 0.000000 0.000000
vt 0.000000 0.000000
vt 0.000000 0.000000
vt 0.000000 0.000000
vt 0.000000 0.000000
vt 0.000000 0.000000
vt 0.000000 0.000000
vt 0.000000 0.000000
vt 0.000000 0.000000
vt 0.000000 0.000000
vt 0.000000 0.000000
vt 0.000000 0.000000
vt 0.000000 0.000000
vt 0.000000 0.000000
vt 0.000000 0.000000
vt 0.000000 0.000000
vt 0.000000 0.000000
vt 0.000000 0.000000
vt 0.000000 0.000000
vt 0.000000 0.000000
vt 0.000000 0.000000
vt 0.000000 0.000000
vt 0.000000 0.000000
vt 0.000000 0.000000
vt 0.000000 0.000000
vt 0.000000 0.000000
vt 0.000000 0.000000
vt 0.000000 0.000000
vt 0.000000 0.000000
vt 0.000000 0.000000
vt 0.000000 0.000000
vt 0.000000 0.000000
vt 0.000000 0.000000
vt 0.000000 0.000000
vt 0.000000 0.000000
vt 0.000000 0.000000
vt 0.000000 0.000000
vt 0.000000 0.000000
vt 0.000000 0.000000
vt 0.000000 0.000000
vt 0.000000 0.000000
vt 0.000000 0.000000
vt 0.000000 0.000000
vt 0.000000 0.000000
vt 0.000000 0.000000
vt 0.000000 0.000000
vt 0.000000 0.000000
vt 0.000000 0.000000
vt 0.000000 0.000000
vt 0.000000 0.000000
vt 0.000000 0.000000
vt 0.000000 0.000000
vt 0.000000 0.000000
vt 0.000000 0.000000
vt 0.000000 0.000000
vt 0.000000 0.000000
vt 0.000000 0.000000
vt 0.000000 0.000000
vt 0.000000 0.000000
vt 0.000000 0.000000
vt 0.000000 0.000000
vt 0.000000 0.000000
vt 0.000000 0.000000
vt 0.000000 0.000000
vt 0.000000 0.000000
vt 0.000000 0.000000
vt 0.000000 0.000000
vt 0.000000 0.000000
vt 0.000000 0.000000
vt 0.000000 0.000000
vt 0.000000 0.000000
vt 0.000000 0.000000
vt 0.000000 0.000000
vt 0.000000 0.000000
vt 0.000000 0.000000
vt 0.000000 0.000000
vt 0.000000 0.000000
vt 0.000000 0.000000
vt 0.000000 0.000000
vt 0.000000 0.000000
vt 0.000000 0.000000
vt 0.375000 0.500000
vt 0.375000 0.750000
vt 0.625000 0.750000
vt 0.625000 0.500000
vt 0.000000 0.000000
vt 0.000000 0.000000
vt 0.375000 1.000000
vt 0.625000 0.250000
vt 0.625000 0.000000
vt 0.625000 0.000000
vt 0.625000 0.250000
vt 0.375000 1.000000
vt 0.375000 0.750000
vt 0.375000 1.000000
vt 0.000000 0.000000
vt 0.000000 0.000000
vt 0.000000 0.000000
vt 0.000000 0.000000
vt 0.625000 0.500000
vt 0.375000 0.500000
vn 0.0000 0.0000 -1.0000
vn 0.0000 0.0000 1.0000
vn 1.0000 0.0000 0.0000
vn 0.0000 -1.0000 0.0000
vn 0.0000 1.0000 0.0000
vn -1.0000 0.0000 0.0000
vn -0.8356 0.0000 -0.5494
vn -0.9006 0.0000 0.4346
vn 0.8356 0.0000 0.5494
vn 0.0135 0.0000 -0.9999
vn 0.0366 0.0000 0.9993
vn 0.0244 0.0000 0.9997
vn 0.9999 0.0000 0.0164
vn -0.9999 0.0000 -0.0164
vn -0.0893 0.0000 -0.9960
vn 0.0893 0.0000 0.9960
vn -0.8356 0.0000 0.5494
vn -0.9006 0.0000 -0.4346
vn 0.8356 0.0000 -0.5494
vn 0.0135 0.0000 0.9999
vn 0.0366 0.0000 -0.9993
vn 0.0244 0.0000 -0.9997
vn 0.9999 0.0000 -0.0164
vn -0.9999 0.0000 0.0164
vn -0.0893 0.0000 0.9960
vn 0.0893 0.0000 -0.9960
usemtl Material
s off
f 1/1/1 2/2/1 5/3/1 8/4/1
f 8/4/2 5/3/2 13/5/2 16/6/2
f 4/7/3 3/8/3 10/9/3 9/10/3
f 2/11/4 4/12/4 6/13/4 5/14/4
f 3/15/5 1/16/5 8/17/5 7/18/5
f 9/10/2 10/9/2 12/19/2 11/20/2
f 6/13/4 4/12/4 9/21/4 11/22/4
f 12/23/2 7/18/2 15/24/2 18/25/2
f 3/15/5 7/18/5 12/23/5 10/26/5
f 16/6/1 13/5/1 129/27/1 132/28/1
f 15/29/6 14/30/6 17/31/6 18/32/6
f 5/14/2 6/13/2 14/33/2 13/34/2
f 11/20/2 12/19/2 18/32/2 17/31/2
f 6/13/2 11/22/2 17/35/2 14/33/2
f 7/18/2 8/17/2 16/36/2 15/24/2
f 42/37/2 41/38/2 43/39/2 44/40/2
f 4/12/2 2/11/2 45/41/2 46/42/2
f 44/40/7 43/39/7 47/43/7 48/44/7
f 48/44/8 20/45/8 51/46/8 58/47/8
f 20/45/2 22/48/2 50/49/2 51/46/2
f 44/40/9 48/44/9 58/47/9 57/50/9
f 42/37/2 44/40/2 57/50/2 56/51/2
f 65/52/9 34/53/9 100/54/9 101/55/9
f 57/50/10 53/56/10 64/57/10 66/58/10
f 23/59/5 24/60/5 19/61/5
f 34/53/9 65/52/9 24/60/9 23/59/9
f 65/52/10 63/62/10 19/61/10 24/60/10
f 63/62/8 34/53/8 23/59/8 19/61/8
f 28/63/2 25/64/2 103/65/2 102/66/2
f 67/67/2 71/68/2 108/69/2 110/70/2
f 74/71/2 79/72/2 87/73/2 82/74/2
f 29/75/2 38/76/2 79/72/2 74/71/2
f 69/77/2 70/78/2 76/79/2 77/80/2
f 25/64/2 28/63/2 72/81/2 73/82/2
f 68/83/2 25/64/2 73/82/2 75/84/2
f 28/63/2 29/75/2 74/71/2 72/81/2
f 38/76/2 71/68/2 78/85/2 79/72/2
f 71/68/2 69/77/2 77/80/2 78/85/2
f 70/78/2 68/83/2 75/84/2 76/79/2
f 84/86/11 83/87/11 91/88/11 92/89/11
f 77/80/2 76/79/2 84/86/2 85/90/2
f 75/84/2 73/82/2 81/91/2 83/87/2
f 73/82/2 72/81/2 80/92/2 81/91/2
f 79/72/2 78/85/2 86/93/2 87/73/2
f 78/85/2 77/80/2 85/90/2 86/93/2
f 76/79/2 75/84/2 83/87/2 84/86/2
f 72/81/2 74/71/2 82/74/2 80/92/2
f 88/94/4 90/95/4 95/96/4 94/97/4 93/98/4 92/89/4 91/88/4 89/99/4
f 80/92/6 82/74/6 90/95/6 88/94/6
f 82/74/1 87/73/1 95/96/1 90/95/1
f 85/90/2 84/86/2 92/89/2 93/98/2
f 83/87/12 81/91/12 89/99/12 91/88/12
f 81/91/2 80/92/2 88/94/2 89/99/2
f 87/73/13 86/93/13 94/97/13 95/96/13
f 86/93/2 85/90/2 93/98/2 94/97/2
f 98/100/14 96/101/14 126/102/14 128/103/14
f 62/104/13 71/68/13 96/101/13 98/100/13
f 67/67/8 62/104/8 98/100/8 97/105/8
f 71/68/15 67/67/15 97/105/15 96/101/15
f 100/54/4 99/106/4 101/55/4
f 63/62/10 65/52/10 101/55/10 99/106/10
f 34/53/8 63/62/8 99/106/8 100/54/8
f 105/107/11 106/108/11 116/109/11 115/110/11
f 108/69/2 111/111/2 122/112/2 120/113/2
f 69/77/2 71/68/2 108/69/2 107/114/2
f 29/75/2 28/63/2 102/66/2 104/115/2
f 25/64/2 68/83/2 105/107/2 103/65/2
f 62/104/2 67/67/2 110/70/2 111/111/2
f 38/76/2 29/75/2 104/115/2 109/116/2
f 68/83/2 70/78/2 106/108/2 105/107/2
f 71/68/2 62/104/2 111/111/2 108/69/2
f 71/68/2 38/76/2 109/116/2 108/69/2
f 70/78/2 69/77/2 107/114/2 106/108/2
f 112/117/5 113/118/5 115/110/5 116/109/5 117/119/5 118/120/5 119/121/5 114/122/5
f 104/115/6 102/66/6 112/117/6 114/122/6
f 109/116/1 104/115/1 114/122/1 119/121/1
f 106/108/2 107/114/2 117/119/2 116/109/2
f 103/65/12 105/107/12 115/110/12 113/118/12
f 102/66/2 103/65/2 113/118/2 112/117/2
f 108/69/13 109/116/13 119/121/13 118/120/13
f 107/114/2 108/69/2 118/120/2 117/119/2
f 120/113/13 122/112/13 125/123/13 123/124/13
f 111/111/2 110/70/2 121/125/2 122/112/2
f 110/70/2 108/69/2 120/113/2 121/125/2
f 130/126/6 131/127/6 132/128/6 129/129/6
f 122/112/8 121/125/8 124/130/8 125/123/8
f 128/103/4 98/100/4 62/104/4 111/111/4 122/112/4 125/123/4 124/130/4 127/131/4 126/102/4
f 96/101/16 97/105/16 127/131/16 126/102/16
f 13/34/4 14/33/4 130/132/4 129/129/4
f 15/24/5 16/36/5 132/133/5 131/134/5
f 14/30/2 15/29/2 131/127/2 130/126/2
f 1/16/5 3/15/5 138/135/5 139/136/5
f 137/137/3 141/138/3 140/139/3 139/136/3 138/135/3
f 45/140/1 1/141/1 139/142/1 140/143/1
f 3/8/2 4/7/2 137/144/2 138/145/2
f 46/42/4 45/41/4 140/139/4 141/138/4
f 4/12/2 46/42/2 141/138/2 137/137/2
f 142/146/2 149/147/2 146/148/2 143/149/2
f 149/147/2 157/150/2 154/151/2 146/148/2
f 145/152/3 150/153/3 151/154/3 144/155/3
f 143/156/4 146/157/4 147/158/4 145/159/4
f 144/160/5 148/161/5 149/162/5 142/163/5
f 150/153/1 152/164/1 153/165/1 151/154/1
f 147/158/4 152/166/4 150/167/4 145/159/4
f 153/168/2 159/169/2 156/170/2 148/161/2
f 144/160/5 151/171/5 153/168/5 148/161/5
f 157/150/2 273/172/2 270/173/2 154/151/2
f 156/174/6 159/175/6 158/176/6 155/177/6
f 146/157/2 154/178/2 155/179/2 147/158/2
f 152/164/2 158/176/2 159/175/2 153/165/2
f 147/158/2 155/179/2 158/180/2 152/166/2
f 148/161/2 156/170/2 157/181/2 149/162/2
f 183/182/2 185/183/2 184/184/2 182/185/2
f 145/159/2 187/186/2 186/187/2 143/156/2
f 185/183/17 189/188/17 188/189/17 184/184/17
f 189/188/18 199/190/18 192/191/18 161/192/18
f 161/192/2 192/191/2 191/193/2 163/194/2
f 185/183/19 198/195/19 199/190/19 189/188/19
f 183/182/2 197/196/2 198/195/2 185/183/2
f 206/197/19 242/198/19 241/199/19 175/200/19
f 198/195/20 207/201/20 205/202/20 194/203/20
f 164/204/5 160/205/5 165/206/5
f 175/200/19 164/204/19 165/206/19 206/197/19
f 206/197/20 165/206/20 160/205/20 204/207/20
f 204/207/18 160/205/18 164/204/18 175/200/18
f 169/208/2 243/209/2 244/210/2 166/211/2
f 208/212/2 251/213/2 249/214/2 212/215/2
f 215/216/2 223/217/2 228/218/2 220/219/2
f 170/220/2 215/216/2 220/219/2 179/221/2
f 210/222/2 218/223/2 217/224/2 211/225/2
f 166/211/2 214/226/2 213/227/2 169/208/2
f 209/228/2 216/229/2 214/226/2 166/211/2
f 169/208/2 213/227/2 215/216/2 170/220/2
f 179/221/2 220/219/2 219/230/2 212/215/2
f 212/215/2 219/230/2 218/223/2 210/222/2
f 211/225/2 217/224/2 216/229/2 209/228/2
f 225/231/21 233/232/21 232/233/21 224/234/21
f 218/223/2 226/235/2 225/231/2 217/224/2
f 216/229/2 224/234/2 222/236/2 214/226/2
f 214/226/2 222/236/2 221/237/2 213/227/2
f 220/219/2 228/218/2 227/238/2 219/230/2
f 219/230/2 227/238/2 226/235/2 218/223/2
f 217/224/2 225/231/2 224/234/2 216/229/2
f 213/227/2 221/237/2 223/217/2 215/216/2
f 229/239/4 230/240/4 232/233/4 233/232/4 234/241/4 235/242/4 236/243/4 231/244/4
f 221/237/6 229/239/6 231/244/6 223/217/6
f 223/217/2 231/244/2 236/243/2 228/218/2
f 226/235/2 234/241/2 233/232/2 225/231/2
f 224/234/22 232/233/22 230/240/22 222/236/22
f 222/236/1 230/240/1 229/239/1 221/237/1
f 228/218/23 236/243/23 235/242/23 227/238/23
f 227/238/2 235/242/2 234/241/2 226/235/2
f 239/245/24 269/246/24 267/247/24 237/248/24
f 203/249/23 239/245/23 237/248/23 212/215/23
f 208/212/18 238/250/18 239/245/18 203/249/18
f 212/215/25 237/248/25 238/250/25 208/212/25
f 241/199/4 242/198/4 240/251/4
f 204/207/20 240/251/20 242/198/20 206/197/20
f 175/200/18 241/199/18 240/251/18 204/207/18
f 246/252/21 256/253/21 257/254/21 247/255/21
f 249/214/2 261/256/2 263/257/2 252/258/2
f 210/222/2 248/259/2 249/214/2 212/215/2
f 170/220/2 245/260/2 243/209/2 169/208/2
f 166/211/2 244/210/2 246/252/2 209/228/2
f 203/249/2 252/258/2 251/213/2 208/212/2
f 179/221/2 250/261/2 245/260/2 170/220/2
f 209/228/2 246/252/2 247/255/2 211/225/2
f 212/215/2 249/214/2 252/258/2 203/249/2
f 212/215/2 249/214/2 250/261/2 179/221/2
f 211/225/2 247/255/2 248/259/2 210/222/2
f 253/262/5 255/263/5 260/264/5 259/265/5 258/266/5 257/254/5 256/253/5 254/267/5
f 245/260/6 255/263/6 253/262/6 243/209/6
f 250/261/2 260/264/2 255/263/2 245/260/2
f 247/255/2 257/254/2 258/266/2 248/259/2
f 244/210/22 254/267/22 256/253/22 246/252/22
f 243/209/1 253/262/1 254/267/1 244/210/1
f 249/214/23 259/265/23 260/264/23 250/261/23
f 248/259/2 258/266/2 259/265/2 249/214/2
f 261/256/23 264/268/23 266/269/23 263/257/23
f 252/258/2 263/257/2 262/270/2 251/213/2
f 251/213/2 262/270/2 261/256/2 249/214/2
f 271/271/6 270/272/6 273/273/6 272/274/6
f 263/257/18 266/269/18 265/275/18 262/270/18
f 269/246/4 267/247/4 268/276/4 265/275/4 266/269/4 263/257/4 252/258/4 203/249/4 239/245/4
f 237/248/26 267/247/26 268/276/26 238/250/26
f 154/178/4 270/272/4 271/277/4 155/179/4
f 156/170/5 272/278/5 273/279/5 157/181/5
f 155/177/1 271/271/1 272/274/1 156/174/1
f 142/163/5 280/280/5 279/281/5 144/160/5
f 278/282/3 279/281/3 280/280/3 281/283/3 282/284/3
f 186/285/2 281/286/2 280/287/2 142/288/2
f 144/155/1 279/289/1 278/290/1 145/152/1
f 187/186/4 282/284/4 281/283/4 186/187/4
f 145/159/2 278/282/2 282/284/2 187/186/2
l 10 20
l 18 26
l 27 22
l 31 30
l 27 31
l 32 33
l 27 32
l 42 40
l 39 41
l 20 49
l 50 52
l 53 52
l 54 53
l 56 55
l 53 36
l 52 33
l 52 61
l 59 50
l 51 60
l 67 58
l 56 65
l 53 62
l 133 135
l 136 134
l 151 161
l 159 167
l 168 163
l 172 171
l 168 172
l 173 174
l 168 173
l 183 181
l 180 182
l 161 190
l 191 193
l 194 193
l 195 194
l 197 196
l 194 177
l 193 174
l 193 202
l 200 191
l 192 201
l 208 199
l 197 206
l 194 203
l 274 276
l 277 275
